<?xml version="1.0" encoding="UTF-8" standalone="no"?>
<svg
   xmlns:dc="http://purl.org/dc/elements/1.1/"
   xmlns:cc="http://creativecommons.org/ns#"
   xmlns:rdf="http://www.w3.org/1999/02/22-rdf-syntax-ns#"
   xmlns:svg="http://www.w3.org/2000/svg"
   xmlns="http://www.w3.org/2000/svg"
   id="svg8"
   version="1.1"
   viewBox="0 0 106.09792 53.13319"
   height="53.13319mm"
   width="106.09792mm">
  <defs
     id="defs2" />
  <metadata
     id="metadata5">
    <rdf:RDF>
      <cc:Work
         rdf:about="">
        <dc:format>image/svg+xml</dc:format>
        <dc:type
           rdf:resource="http://purl.org/dc/dcmitype/StillImage" />
        <dc:title></dc:title>
      </cc:Work>
    </rdf:RDF>
  </metadata>
  <g
     transform="translate(155.08325,-37.307346)"
     id="layer1">
    <rect
       ry="0"
       y="37.307346"
       x="-155.08325"
       height="53.13319"
       width="106.09792"
       id="rect1274"
       style="opacity:1;fill:#f4f6f7;fill-opacity:1;stroke:none;stroke-width:1.22489309;stroke-linecap:round;stroke-linejoin:round;stroke-miterlimit:4;stroke-dasharray:none;stroke-dashoffset:0;stroke-opacity:1;paint-order:stroke fill markers" />
    <g
       transform="matrix(0.26458333,0,0,0.26458333,-143.66528,79.129228)"
       id="g826"
       style="fill:none">
      <path
         style="fill:#002c50"
         d="m 6.17285,5.16895 v 1.6748 c 0,0.72917 -0.06836,1.36491 -0.20508,1.90723 C 5.83105,9.28874 5.63053,9.73535 5.36621,10.0908 5.10645,10.4417 4.78743,10.7038 4.40918,10.877 4.03548,11.0501 3.6071,11.1367 3.12402,11.1367 2.74121,11.1367 2.3903,11.082 2.07129,10.9727 1.75228,10.8633 1.46745,10.6969 1.2168,10.4736 0.970703,10.2458 0.761068,9.96094 0.587891,9.61914 0.414714,9.27734 0.282552,8.8763 0.191406,8.41602 0.10026,7.95117 0.0546875,7.42708 0.0546875,6.84375 v -1.6748 c 0,-0.73373 0.0683595,-1.36719 0.2050785,-1.9004 C 0.401042,2.73535 0.601562,2.29329 0.861328,1.94238 1.12565,1.59147 1.44694,1.33171 1.8252,1.16309 2.20345,0.989909 2.63184,0.90332 3.11035,0.90332 c 0.38281,0 0.73373,0.056966 1.05274,0.1709 0.32356,0.10937 0.60839,0.27344 0.85449,0.49219 0.25065,0.21875 0.46028,0.49902 0.6289,0.84082 0.17318,0.33724 0.30306,0.736 0.38965,1.19629 0.09115,0.46028 0.13672,0.98209 0.13672,1.56543 z M 5.35938,6.93945 V 5.06641 C 5.35938,4.61523 5.32747,4.20508 5.26367,3.83594 5.20443,3.4668 5.11556,3.14323 4.99707,2.86523 4.87858,2.58724 4.72819,2.35482 4.5459,2.16797 4.36816,1.98112 4.15853,1.84212 3.91699,1.75098 3.68001,1.65527 3.41113,1.60742 3.11035,1.60742 2.74121,1.60742 2.41536,1.68262 2.13281,1.83301 1.85482,1.97884 1.6224,2.19759 1.43555,2.48926 1.2487,2.77637 1.10742,3.13639 1.01172,3.56934 0.920573,4.00228 0.875,4.5013 0.875,5.06641 v 1.87304 c 0,0.44662 0.029622,0.8545 0.088867,1.22364 C 1.02311,8.52767 1.11426,8.85124 1.2373,9.13379 1.36035,9.41634 1.51074,9.6556 1.68848,9.85156 1.87077,10.043 2.0804,10.1888 2.31738,10.2891 c 0.24154,0.0957 0.51042,0.1435 0.80664,0.1435 0.37826,0 0.70638,-0.0752 0.98438,-0.2256 C 4.38639,10.0521 4.61882,9.8265 4.80566,9.53027 4.99251,9.22949 5.13151,8.86263 5.22266,8.42969 5.3138,7.99219 5.35938,7.49544 5.35938,6.93945 Z"
         id="path815" />
    </g>
    <g
       transform="matrix(0.26458333,0,0,0.26458333,-146.04655,73.569201)"
       id="g865"
       style="fill:none">
      <path
         style="fill:#002c50"
         d="M 7.21965,10.2959 V 11 H 0.992109 V 10.3643 L 4.25285,6.66602 C 4.65845,6.20573 4.98202,5.80241 5.22355,5.45605 5.46509,5.10514 5.63827,4.78613 5.74309,4.49902 5.85246,4.20736 5.90715,3.9248 5.90715,3.65137 5.90715,3.25033 5.8274,2.89714 5.66789,2.5918 5.51294,2.28646 5.28052,2.0472 4.97062,1.87402 4.66073,1.70085 4.27792,1.61426 3.82219,1.61426 3.36646,1.61426 2.96997,1.71224 2.63273,1.9082 2.29549,2.10417 2.03573,2.3776 1.85344,2.72852 1.6757,3.07487 1.58684,3.46908 1.58684,3.91113 H 0.773359 c 0,-0.54687 0.120769,-1.04817 0.362301,-1.5039 C 1.38176,1.9515 1.73267,1.58919 2.1884,1.32031 2.64413,1.04688 3.18872,0.910156 3.82219,0.910156 c 0.60156,0 1.11881,0.107094 1.55176,0.321294 0.43294,0.20963 0.76562,0.51269 0.99804,0.90917 0.23698,0.39649 0.35547,0.875 0.35547,1.43555 0,0.30078 -0.05469,0.60384 -0.16406,0.90918 C 6.45858,4.79069 6.31275,5.09603 6.1259,5.40137 5.94361,5.70215 5.73397,6.00065 5.49699,6.29688 5.26457,6.5931 5.02076,6.88477 4.76555,7.17188 L 1.99016,10.2959 Z M 15.1729,5.16895 v 1.6748 c 0,0.72917 -0.0684,1.36491 -0.2051,1.90723 -0.1367,0.53776 -0.3373,0.98437 -0.6016,1.33982 -0.2598,0.3509 -0.5788,0.613 -0.957,0.7862 -0.3737,0.1731 -0.8021,0.2597 -1.2852,0.2597 -0.3828,0 -0.7337,-0.0547 -1.0527,-0.164 -0.319,-0.1094 -0.6039,-0.2758 -0.8545,-0.4991 C 9.9707,10.2458 9.76107,9.96094 9.58789,9.61914 9.41471,9.27734 9.28255,8.8763 9.19141,8.41602 9.10026,7.95117 9.05469,7.42708 9.05469,6.84375 v -1.6748 c 0,-0.73373 0.06836,-1.36719 0.20508,-1.9004 C 9.40104,2.73535 9.60156,2.29329 9.86133,1.94238 10.1257,1.59147 10.4469,1.33171 10.8252,1.16309 c 0.3783,-0.173181 0.8066,-0.25977 1.2852,-0.25977 0.3828,0 0.7337,0.056966 1.0527,0.1709 0.3236,0.10937 0.6084,0.27344 0.8545,0.49219 0.2506,0.21875 0.4603,0.49902 0.6289,0.84082 0.1732,0.33724 0.303,0.736 0.3896,1.19629 0.0912,0.46028 0.1368,0.98209 0.1368,1.56543 z m -0.8135,1.7705 V 5.06641 c 0,-0.45118 -0.0319,-0.86133 -0.0957,-1.23047 C 14.2044,3.4668 14.1156,3.14323 13.9971,2.86523 13.8786,2.58724 13.7282,2.35482 13.5459,2.16797 13.3682,1.98112 13.1585,1.84212 12.917,1.75098 12.68,1.65527 12.4111,1.60742 12.1104,1.60742 c -0.3692,0 -0.695,0.0752 -0.9776,0.22559 -0.278,0.14583 -0.5104,0.36458 -0.6973,0.65625 C 10.2487,2.77637 10.1074,3.13639 10.0117,3.56934 9.92057,4.00228 9.875,4.5013 9.875,5.06641 v 1.87304 c 0,0.44662 0.02962,0.8545 0.08887,1.22364 0.05923,0.36458 0.15043,0.68815 0.27343,0.9707 0.1231,0.28255 0.2734,0.52181 0.4512,0.71777 0.1823,0.19144 0.3919,0.33724 0.6289,0.43754 0.2415,0.0957 0.5104,0.1435 0.8066,0.1435 0.3783,0 0.7064,-0.0752 0.9844,-0.2256 0.278,-0.1549 0.5104,-0.3805 0.6973,-0.67673 0.1868,-0.30078 0.3258,-0.66764 0.417,-1.10058 0.0911,-0.4375 0.1367,-0.93425 0.1367,-1.49024 z"
         id="path854" />
    </g>
    <g
       transform="matrix(0.26458333,0,0,0.26458333,-146.04655,68.00917)"
       id="g891"
       style="fill:none">
      <path
         style="fill:#002c50"
         d="M 7.56145,7.78711 V 8.48438 H 0.513594 V 8.0127 L 5.11418,1.04688 H 5.79777 L 4.82707,2.73535 1.51164,7.78711 Z M 6.00969,1.04688 V 11 H 5.19621 V 1.04688 Z m 9.16321,4.12207 v 1.6748 c 0,0.72917 -0.0684,1.36491 -0.2051,1.90723 -0.1367,0.53776 -0.3373,0.98437 -0.6016,1.33982 -0.2598,0.3509 -0.5788,0.613 -0.957,0.7862 -0.3737,0.1731 -0.8021,0.2597 -1.2852,0.2597 -0.3828,0 -0.7337,-0.0547 -1.0527,-0.164 -0.319,-0.1094 -0.6039,-0.2758 -0.8545,-0.4991 C 9.9707,10.2458 9.76107,9.96094 9.58789,9.61914 9.41471,9.27734 9.28255,8.8763 9.19141,8.41602 9.10026,7.95117 9.05469,7.42708 9.05469,6.84375 v -1.6748 c 0,-0.73373 0.06836,-1.36719 0.20508,-1.9004 C 9.40104,2.73535 9.60156,2.29329 9.86133,1.94238 10.1257,1.59147 10.4469,1.33171 10.8252,1.16309 c 0.3783,-0.173181 0.8066,-0.25977 1.2852,-0.25977 0.3828,0 0.7337,0.056966 1.0527,0.1709 0.3236,0.10937 0.6084,0.27344 0.8545,0.49219 0.2506,0.21875 0.4603,0.49902 0.6289,0.84082 0.1732,0.33724 0.303,0.736 0.3896,1.19629 0.0912,0.46028 0.1368,0.98209 0.1368,1.56543 z m -0.8135,1.7705 V 5.06641 c 0,-0.45118 -0.0319,-0.86133 -0.0957,-1.23047 C 14.2044,3.4668 14.1156,3.14323 13.9971,2.86523 13.8786,2.58724 13.7282,2.35482 13.5459,2.16797 13.3682,1.98112 13.1585,1.84212 12.917,1.75098 12.68,1.65527 12.4111,1.60742 12.1104,1.60742 c -0.3692,0 -0.695,0.0752 -0.9776,0.22559 -0.278,0.14583 -0.5104,0.36458 -0.6973,0.65625 C 10.2487,2.77637 10.1074,3.13639 10.0117,3.56934 9.92057,4.00228 9.875,4.5013 9.875,5.06641 v 1.87304 c 0,0.44662 0.02962,0.8545 0.08887,1.22364 0.05923,0.36458 0.15043,0.68815 0.27343,0.9707 0.1231,0.28255 0.2734,0.52181 0.4512,0.71777 0.1823,0.19144 0.3919,0.33724 0.6289,0.43754 0.2415,0.0957 0.5104,0.1435 0.8066,0.1435 0.3783,0 0.7064,-0.0752 0.9844,-0.2256 0.278,-0.1549 0.5104,-0.3805 0.6973,-0.67673 0.1868,-0.30078 0.3258,-0.66764 0.417,-1.10058 0.0911,-0.4375 0.1367,-0.93425 0.1367,-1.49024 z"
         id="path880" />
    </g>
    <g
       transform="matrix(0.26458333,0,0,0.26458333,-146.04655,62.449139)"
       id="g917"
       style="fill:none">
      <path
         style="fill:#002c50"
         d="M 5.69523,0.97168 H 5.81145 V 1.68945 H 5.69523 c -0.6289,0 -1.18945,0.10254 -1.68164,0.30762 C 3.52596,2.20215 3.11353,2.49837 2.77629,2.88574 2.44361,3.26855 2.19068,3.7334 2.0175,4.28027 1.84432,4.82715 1.75773,5.4401 1.75773,6.11914 v 1.37402 c 0,0.46029 0.06153,0.87273 0.18457,1.23731 0.12305,0.36002 0.29395,0.66764 0.5127,0.92285 0.21875,0.25521 0.47396,0.44888 0.76562,0.58108 0.29167,0.1321 0.60612,0.1982 0.94336,0.1982 0.33269,0 0.63119,-0.0683 0.89551,-0.2051 C 5.32382,10.0908 5.54712,9.89941 5.72941,9.65332 5.91626,9.40723 6.05754,9.12467 6.15324,8.80566 6.2535,8.4821 6.30363,8.13574 6.30363,7.7666 6.30363,7.41569 6.25806,7.08529 6.16691,6.77539 6.08033,6.46094 5.94589,6.18294 5.76359,5.94141 5.5813,5.69987 5.35344,5.51074 5.08,5.37402 4.80656,5.2373 4.48527,5.16895 4.11613,5.16895 c -0.41927,0 -0.8112,0.0957 -1.17578,0.2871 C 2.57577,5.64746 2.27727,5.90267 2.04484,6.22168 1.81698,6.54069 1.69621,6.88932 1.68254,7.26758 L 1.21086,7.26074 C 1.24276,6.83236 1.34074,6.44727 1.5048,6.10547 1.66887,5.75911 1.88534,5.46517 2.15422,5.22363 2.42766,4.97754 2.73983,4.79069 3.09074,4.66309 3.44621,4.53092 3.82902,4.46484 4.23918,4.46484 c 0.47852,0 0.89551,0.08659 1.25098,0.25977 0.36002,0.17318 0.65852,0.41243 0.8955,0.71777 0.24154,0.30078 0.42155,0.64942 0.54004,1.0459 0.12305,0.39193 0.18457,0.80664 0.18457,1.24414 0,0.47852 -0.06836,0.92513 -0.20507,1.33985 C 6.77303,9.48242 6.57707,9.84245 6.3173,10.1523 6.0621,10.4622 5.7522,10.7038 5.38762,10.877 5.02759,11.0501 4.61971,11.1367 4.16398,11.1367 3.66268,11.1367 3.21379,11.041 2.8173,10.8496 2.42082,10.6582 2.0813,10.3939 1.79875,10.0566 1.52076,9.7194 1.30656,9.33203 1.15617,8.89453 1.01034,8.45247 0.937422,7.98079 0.937422,7.47949 v -0.875 C 0.937422,5.75684 1.0354,4.98893 1.23137,4.30078 1.42733,3.60807 1.72128,3.01335 2.1132,2.5166 2.50969,2.01986 3.00415,1.63932 3.5966,1.375 4.19361,1.10612 4.89315,0.97168 5.69523,0.97168 Z m 9.47767,4.19727 v 1.6748 c 0,0.72917 -0.0684,1.36491 -0.2051,1.90723 -0.1367,0.53776 -0.3373,0.98437 -0.6016,1.33982 -0.2598,0.3509 -0.5788,0.613 -0.957,0.7862 -0.3737,0.1731 -0.8021,0.2597 -1.2852,0.2597 -0.3828,0 -0.7337,-0.0547 -1.0527,-0.164 -0.319,-0.1094 -0.6039,-0.2758 -0.8545,-0.4991 C 9.9707,10.2458 9.76107,9.96094 9.58789,9.61914 9.41471,9.27734 9.28255,8.8763 9.19141,8.41602 9.10026,7.95117 9.05469,7.42708 9.05469,6.84375 v -1.6748 c 0,-0.73373 0.06836,-1.36719 0.20508,-1.9004 C 9.40104,2.73535 9.60156,2.29329 9.86133,1.94238 10.1257,1.59147 10.4469,1.33171 10.8252,1.16309 c 0.3783,-0.173181 0.8066,-0.25977 1.2852,-0.25977 0.3828,0 0.7337,0.056966 1.0527,0.1709 0.3236,0.10937 0.6084,0.27344 0.8545,0.49219 0.2506,0.21875 0.4603,0.49902 0.6289,0.84082 0.1732,0.33724 0.303,0.736 0.3896,1.19629 0.0912,0.46028 0.1368,0.98209 0.1368,1.56543 z m -0.8135,1.7705 V 5.06641 c 0,-0.45118 -0.0319,-0.86133 -0.0957,-1.23047 C 14.2044,3.4668 14.1156,3.14323 13.9971,2.86523 13.8786,2.58724 13.7282,2.35482 13.5459,2.16797 13.3682,1.98112 13.1585,1.84212 12.917,1.75098 12.68,1.65527 12.4111,1.60742 12.1104,1.60742 c -0.3692,0 -0.695,0.0752 -0.9776,0.22559 -0.278,0.14583 -0.5104,0.36458 -0.6973,0.65625 C 10.2487,2.77637 10.1074,3.13639 10.0117,3.56934 9.92057,4.00228 9.875,4.5013 9.875,5.06641 v 1.87304 c 0,0.44662 0.02962,0.8545 0.08887,1.22364 0.05923,0.36458 0.15043,0.68815 0.27343,0.9707 0.1231,0.28255 0.2734,0.52181 0.4512,0.71777 0.1823,0.19144 0.3919,0.33724 0.6289,0.43754 0.2415,0.0957 0.5104,0.1435 0.8066,0.1435 0.3783,0 0.7064,-0.0752 0.9844,-0.2256 0.278,-0.1549 0.5104,-0.3805 0.6973,-0.67673 0.1868,-0.30078 0.3258,-0.66764 0.417,-1.10058 0.0911,-0.4375 0.1367,-0.93425 0.1367,-1.49024 z"
         id="path906" />
    </g>
    <g
       transform="matrix(0.26458333,0,0,0.26458333,-146.04655,56.889106)"
       id="g943"
       style="fill:none">
      <path
         style="fill:#002c50"
         d="m 7.11027,8.36133 c 0,0.60156 -0.14127,1.1097 -0.42382,1.52441 -0.278,0.41476 -0.65625,0.72686 -1.13477,0.93656 -0.47852,0.2096 -1.014,0.3144 -1.60645,0.3144 -0.597,0 -1.13476,-0.1048 -1.61328,-0.3144 C 1.85344,10.6126 1.4729,10.3005 1.19035,9.88574 0.912357,9.47103 0.773359,8.96289 0.773359,8.36133 0.773359,7.96484 0.850833,7.60482 1.00578,7.28125 1.16529,6.95312 1.38632,6.67057 1.66887,6.43359 1.95598,6.19206 2.29094,6.00521 2.67375,5.87305 3.05656,5.74089 3.47583,5.6748 3.93156,5.6748 c 0.60156,0 1.1416,0.11622 1.62012,0.34864 C 6.0302,6.2513 6.40845,6.56576 6.68645,6.9668 6.969,7.36784 7.11027,7.83268 7.11027,8.36133 Z m -0.82031,0 C 6.28996,7.9375 6.18742,7.56608 5.98234,7.24707 5.77727,6.92806 5.49699,6.68197 5.14152,6.50879 4.78605,6.33105 4.38273,6.24219 3.93156,6.24219 3.47583,6.24219 3.07251,6.33105 2.7216,6.50879 2.37069,6.68197 2.09497,6.92806 1.89445,7.24707 1.69393,7.56608 1.59367,7.9375 1.59367,8.36133 c 0,0.44206 0.09798,0.81803 0.29395,1.12793 0.20052,0.30989 0.47851,0.54464 0.83398,0.70414 0.35547,0.1595 0.76335,0.2392 1.22363,0.2392 0.46029,0 0.86589,-0.0797 1.2168,-0.2392 C 5.51294,10.0339 5.78866,9.79915 5.98918,9.48926 6.1897,9.17936 6.28996,8.80339 6.28996,8.36133 Z M 6.85051,3.60352 c 0,0.48763 -0.12989,0.92285 -0.38965,1.30566 C 6.20565,5.28743 5.8593,5.58594 5.4218,5.80469 4.9843,6.01888 4.48983,6.12598 3.9384,6.12598 3.38241,6.12598 2.88339,6.01888 2.44133,5.80469 2.00383,5.58594 1.65747,5.28743 1.40227,4.90918 1.15161,4.52637 1.02629,4.09115 1.02629,3.60352 c 0,-0.57878 0.12532,-1.06641 0.37598,-1.4629 0.2552,-0.40104 0.60156,-0.70638 1.03906,-0.91601 0.4375,-0.20964 0.93424,-0.314454 1.49023,-0.314454 0.55143,0 1.0459,0.104814 1.4834,0.314454 0.44206,0.20963 0.79069,0.51497 1.0459,0.91601 0.25976,0.39649 0.38965,0.88412 0.38965,1.4629 z M 6.03703,3.59668 C 6.03703,3.20931 5.94361,2.86751 5.75676,2.57129 5.57447,2.27507 5.32382,2.04264 5.0048,1.87402 4.69035,1.70085 4.3326,1.61426 3.93156,1.61426 3.52596,1.61426 3.16594,1.69401 2.85148,1.85352 2.54159,2.01302 2.29549,2.24089 2.1132,2.53711 1.93547,2.83333 1.8466,3.18652 1.8466,3.59668 c 0,0.40104 0.08887,0.7474 0.2666,1.03906 0.18229,0.28711 0.43067,0.51042 0.74512,0.66992 0.31445,0.15951 0.67448,0.23926 1.08008,0.23926 0.4056,0 0.76562,-0.07975 1.08008,-0.23926 C 5.33293,5.14616 5.5813,4.92285 5.76359,4.63574 5.94589,4.34408 6.03703,3.99772 6.03703,3.59668 Z m 9.13587,1.57227 v 1.6748 c 0,0.72917 -0.0684,1.36491 -0.2051,1.90723 -0.1367,0.53776 -0.3373,0.98437 -0.6016,1.33982 -0.2598,0.3509 -0.5788,0.613 -0.957,0.7862 -0.3737,0.1731 -0.8021,0.2597 -1.2852,0.2597 -0.3828,0 -0.7337,-0.0547 -1.0527,-0.164 -0.319,-0.1094 -0.6039,-0.2758 -0.8545,-0.4991 C 9.9707,10.2458 9.76107,9.96094 9.58789,9.61914 9.41471,9.27734 9.28255,8.8763 9.19141,8.41602 9.10026,7.95117 9.05469,7.42708 9.05469,6.84375 v -1.6748 c 0,-0.73373 0.06836,-1.36719 0.20508,-1.9004 C 9.40104,2.73535 9.60156,2.29329 9.86133,1.94238 10.1257,1.59147 10.4469,1.33171 10.8252,1.16309 c 0.3783,-0.173181 0.8066,-0.25977 1.2852,-0.25977 0.3828,0 0.7337,0.056966 1.0527,0.1709 0.3236,0.10937 0.6084,0.27344 0.8545,0.49219 0.2506,0.21875 0.4603,0.49902 0.6289,0.84082 0.1732,0.33724 0.303,0.736 0.3896,1.19629 0.0912,0.46028 0.1368,0.98209 0.1368,1.56543 z m -0.8135,1.7705 V 5.06641 c 0,-0.45118 -0.0319,-0.86133 -0.0957,-1.23047 C 14.2044,3.4668 14.1156,3.14323 13.9971,2.86523 13.8786,2.58724 13.7282,2.35482 13.5459,2.16797 13.3682,1.98112 13.1585,1.84212 12.917,1.75098 12.68,1.65527 12.4111,1.60742 12.1104,1.60742 c -0.3692,0 -0.695,0.0752 -0.9776,0.22559 -0.278,0.14583 -0.5104,0.36458 -0.6973,0.65625 C 10.2487,2.77637 10.1074,3.13639 10.0117,3.56934 9.92057,4.00228 9.875,4.5013 9.875,5.06641 v 1.87304 c 0,0.44662 0.02962,0.8545 0.08887,1.22364 0.05923,0.36458 0.15043,0.68815 0.27343,0.9707 0.1231,0.28255 0.2734,0.52181 0.4512,0.71777 0.1823,0.19144 0.3919,0.33724 0.6289,0.43754 0.2415,0.0957 0.5104,0.1435 0.8066,0.1435 0.3783,0 0.7064,-0.0752 0.9844,-0.2256 0.278,-0.1549 0.5104,-0.3805 0.6973,-0.67673 0.1868,-0.30078 0.3258,-0.66764 0.417,-1.10058 0.0911,-0.4375 0.1367,-0.93425 0.1367,-1.49024 z"
         id="path932" />
    </g>
    <g
       transform="matrix(0.26458333,0,0,0.26458333,-147.89863,51.329079)"
       id="g969"
       style="fill:none">
      <path
         style="fill:#002c50"
         d="M 3.60727,1.00586 V 11 H 2.79379 V 2.03809 L 0.0867577,3.04297 V 2.27051 L 3.47055,1.00586 Z M 13.9872,5.16895 v 1.6748 c 0,0.72917 -0.0683,1.36491 -0.2051,1.90723 -0.1367,0.53776 -0.3372,0.98437 -0.6015,1.33982 -0.2598,0.3509 -0.5788,0.613 -0.957,0.7862 -0.3737,0.1731 -0.8021,0.2597 -1.2852,0.2597 -0.3828,0 -0.7337,-0.0547 -1.05274,-0.164 C 9.56665,10.8633 9.28182,10.6969 9.03117,10.4736 8.78508,10.2458 8.57544,9.96094 8.40227,9.61914 8.22909,9.27734 8.09693,8.8763 8.00578,8.41602 7.91464,7.95117 7.86906,7.42708 7.86906,6.84375 v -1.6748 c 0,-0.73373 0.06836,-1.36719 0.20508,-1.9004 C 8.21542,2.73535 8.41594,2.29329 8.6757,1.94238 8.94003,1.59147 9.26132,1.33171 9.63957,1.16309 10.0178,0.989909 10.4462,0.90332 10.9247,0.90332 c 0.3828,0 0.7338,0.056966 1.0528,0.1709 0.3235,0.10937 0.6084,0.27344 0.8545,0.49219 0.2506,0.21875 0.4602,0.49902 0.6289,0.84082 0.1731,0.33724 0.303,0.736 0.3896,1.19629 0.0912,0.46028 0.1367,0.98209 0.1367,1.56543 z m -0.8135,1.7705 V 5.06641 C 13.1737,4.61523 13.1418,4.20508 13.078,3.83594 13.0188,3.4668 12.9299,3.14323 12.8114,2.86523 12.693,2.58724 12.5426,2.35482 12.3603,2.16797 12.1825,1.98112 11.9729,1.84212 11.7314,1.75098 11.4944,1.65527 11.2255,1.60742 10.9247,1.60742 c -0.3691,0 -0.695,0.0752 -0.97751,0.22559 C 9.66919,1.97884 9.43677,2.19759 9.24992,2.48926 9.06307,2.77637 8.9218,3.13639 8.82609,3.56934 8.73495,4.00228 8.68937,4.5013 8.68937,5.06641 v 1.87304 c 0,0.44662 0.02963,0.8545 0.08887,1.22364 0.05925,0.36458 0.15039,0.68815 0.27344,0.9707 0.12305,0.28255 0.27344,0.52181 0.45117,0.71777 0.18229,0.19144 0.39193,0.33724 0.62895,0.43754 0.2415,0.0957 0.5104,0.1435 0.8066,0.1435 0.3783,0 0.7064,-0.0752 0.9844,-0.2256 0.278,-0.1549 0.5104,-0.3805 0.6972,-0.67673 0.1869,-0.30078 0.3259,-0.66764 0.417,-1.10058 0.0912,-0.4375 0.1367,-0.93425 0.1367,-1.49024 z m 8.9992,-1.7705 v 1.6748 c 0,0.72917 -0.0684,1.36491 -0.2051,1.90723 -0.1367,0.53776 -0.3373,0.98437 -0.6016,1.33982 -0.2598,0.3509 -0.5788,0.613 -0.957,0.7862 -0.3737,0.1731 -0.8021,0.2597 -1.2852,0.2597 -0.3828,0 -0.7337,-0.0547 -1.0527,-0.164 -0.319,-0.1094 -0.6039,-0.2758 -0.8545,-0.4991 C 16.9707,10.2458 16.7611,9.96094 16.5879,9.61914 16.4147,9.27734 16.2826,8.8763 16.1914,8.41602 16.1003,7.95117 16.0547,7.42708 16.0547,6.84375 v -1.6748 c 0,-0.73373 0.0683,-1.36719 0.2051,-1.9004 0.1412,-0.5332 0.3418,-0.97526 0.6015,-1.32617 0.2644,-0.35091 0.5856,-0.61067 0.9639,-0.77929 0.3783,-0.173181 0.8066,-0.25977 1.2852,-0.25977 0.3828,0 0.7337,0.056966 1.0527,0.1709 0.3236,0.10937 0.6084,0.27344 0.8545,0.49219 0.2506,0.21875 0.4603,0.49902 0.6289,0.84082 0.1732,0.33724 0.303,0.736 0.3896,1.19629 0.0912,0.46028 0.1368,0.98209 0.1368,1.56543 z m -0.8135,1.7705 V 5.06641 c 0,-0.45118 -0.0319,-0.86133 -0.0957,-1.23047 C 21.2044,3.4668 21.1156,3.14323 20.9971,2.86523 20.8786,2.58724 20.7282,2.35482 20.5459,2.16797 20.3682,1.98112 20.1585,1.84212 19.917,1.75098 19.68,1.65527 19.4111,1.60742 19.1104,1.60742 c -0.3692,0 -0.695,0.0752 -0.9776,0.22559 -0.278,0.14583 -0.5104,0.36458 -0.6973,0.65625 C 17.2487,2.77637 17.1074,3.13639 17.0117,3.56934 16.9206,4.00228 16.875,4.5013 16.875,5.06641 v 1.87304 c 0,0.44662 0.0296,0.8545 0.0889,1.22364 0.0592,0.36458 0.1504,0.68815 0.2734,0.9707 0.1231,0.28255 0.2734,0.52181 0.4512,0.71777 0.1823,0.19144 0.3919,0.33724 0.6289,0.43754 0.2415,0.0957 0.5104,0.1435 0.8066,0.1435 0.3783,0 0.7064,-0.0752 0.9844,-0.2256 0.278,-0.1549 0.5104,-0.3805 0.6973,-0.67673 0.1868,-0.30078 0.3258,-0.66764 0.417,-1.10058 0.0911,-0.4375 0.1367,-0.93425 0.1367,-1.49024 z"
         id="path958" />
    </g>
    <g
       transform="matrix(0.26458333,0,0,0.26458333,-139.98348,50.899703)"
       id="g1034"
       style="fill:none">
      <line
         style="stroke:#c3d1dc"
         x1="0.5"
         y1="-1.56951e-08"
         x2="0.50000697"
         y2="116"
         id="line1023" />
    </g>
    <g
       transform="matrix(0.26458333,0,0,0.26458333,-139.85119,81.459078)"
       id="g1073"
       style="fill:none">
      <line
         style="stroke:#c3d1dc"
         x2="0"
         x1="116"
         y1="0.5"
         y2="0.5"
         id="line1062" />
    </g>
    <g
       transform="matrix(0.27845402,0,0,0.26458333,-139.81339,53.658928)"
       id="g1086"
       style="fill:none">
      <line
         style="stroke:#06dfa7;stroke-width:3.68419003;stroke-miterlimit:4;stroke-dasharray:none"
         x1="0"
         y1="1.5"
         x2="109"
         y2="1.5"
         id="line1075" />
    </g>
    <g
       transform="matrix(0.26458333,0,0,0.26458333,-137.14865,149.70268)"
       id="g1112"
       style="fill:none">
      <rect
         style="fill:#f4f6f7"
         y="0"
         x="0"
         width="401"
         height="252"
         id="rect1101" />
    </g>
    <g
       transform="matrix(0.26458333,0,0,0.21861325,-128.47411,65.27862)"
       id="g1151"
       style="fill:none">
      <rect
         style="fill:#c3d1dc"
         y="0"
         x="0"
         width="24"
         height="74"
         id="rect1140" />
    </g>
    <g
       transform="matrix(0.26458333,0,0,0.20384026,-128.47411,54.067406)"
       id="g1164"
       style="fill:none">
      <rect
         style="fill:#06dfa7;fill-opacity:1"
         y="0"
         x="0"
         width="24"
         height="55"
         id="rect1153" />
    </g>
    <g
       style="fill:none"
       id="g1176"
       transform="matrix(0.26458333,0,0,0.26458333,-119.83589,58.605122)">
      <text
         id="text1180"
         y="10.235055"
         x="13.106393"
         style="font-style:normal;font-variant:normal;font-weight:300;font-stretch:normal;font-size:13.33129692px;line-height:1.25;font-family:Roboto;-inkscape-font-specification:'Roboto Light';text-align:center;letter-spacing:0px;word-spacing:0px;text-anchor:middle;fill:#000000;fill-opacity:1;stroke:none;stroke-width:0.31245226"
         xml:space="preserve"><tspan
           style="font-style:normal;font-variant:normal;font-weight:bold;font-stretch:normal;font-family:Roboto;-inkscape-font-specification:'Roboto Bold';fill:#05ae82;fill-opacity:1;stroke-width:0.31245226"
           y="10.235055"
           x="13.106393"
           id="tspan1178">2035</tspan></text>
    </g>
    <text
       id="text1184"
       y="42.603325"
       x="-148.25998"
       style="font-style:normal;font-variant:normal;font-weight:300;font-stretch:normal;font-size:3.52723885px;line-height:1.25;font-family:Roboto;-inkscape-font-specification:'Roboto Light';text-align:center;letter-spacing:0px;word-spacing:0px;text-anchor:middle;fill:#000000;fill-opacity:1;stroke:none;stroke-width:0.08266966"
       xml:space="preserve"><tspan
         style="text-align:start;text-anchor:start;fill:#002c50;fill-opacity:1;stroke-width:0.08266966"
         y="42.603325"
         x="-148.25998"
         id="tspan1182">Ziel Anteil Erneuerbare </tspan><tspan
         style="text-align:start;text-anchor:start;stroke-width:0.08266966"
         y="47.012375"
         x="-148.25998"
         id="tspan1192"><tspan
   style="text-align:start;text-anchor:start;fill:#002c50;fill-opacity:1;stroke-width:0.08266966"
   id="tspan1194">Energien:</tspan> <tspan
   style="font-style:normal;font-variant:normal;font-weight:bold;font-stretch:normal;font-family:Roboto;-inkscape-font-specification:'Roboto Bold';text-align:start;text-anchor:start;fill:#05ae82;fill-opacity:1;stroke-width:0.08266966"
   id="tspan1188">92 %</tspan></tspan></text>
    <text
       xml:space="preserve"
       style="font-style:normal;font-variant:normal;font-weight:300;font-stretch:normal;font-size:3.52723885px;line-height:1.25;font-family:Roboto;-inkscape-font-specification:'Roboto Light';text-align:center;letter-spacing:0px;word-spacing:0px;text-anchor:middle;fill:#000000;fill-opacity:1;stroke:none;stroke-width:0.08266966"
       x="-99.047493"
       y="46.836658"
       id="text1259"><tspan
         id="tspan1257"
         x="-99.047493"
         y="46.836658"
         style="text-align:start;text-anchor:start;stroke-width:0.08266966"><tspan
   id="tspan1253"
   style="text-align:start;text-anchor:start;fill:#002c50;fill-opacity:1;stroke-width:0.08266966">Ziel CO2-Emissionen:</tspan> <tspan
   style="font-style:normal;font-variant:normal;font-weight:bold;font-stretch:normal;font-family:Roboto;-inkscape-font-specification:'Roboto Bold';fill:#e6a100;fill-opacity:1;stroke-width:0.08266966"
   id="tspan1263">50 Mt</tspan></tspan></text>
    <g
       style="fill:none"
       id="g1199"
       transform="matrix(0.26458333,0,0,0.26458333,-94.452758,79.129228)">
      <path
         id="path1197"
         d="m 6.17285,5.16895 v 1.6748 c 0,0.72917 -0.06836,1.36491 -0.20508,1.90723 C 5.83105,9.28874 5.63053,9.73535 5.36621,10.0908 5.10645,10.4417 4.78743,10.7038 4.40918,10.877 4.03548,11.0501 3.6071,11.1367 3.12402,11.1367 2.74121,11.1367 2.3903,11.082 2.07129,10.9727 1.75228,10.8633 1.46745,10.6969 1.2168,10.4736 0.970703,10.2458 0.761068,9.96094 0.587891,9.61914 0.414714,9.27734 0.282552,8.8763 0.191406,8.41602 0.10026,7.95117 0.0546875,7.42708 0.0546875,6.84375 v -1.6748 c 0,-0.73373 0.0683595,-1.36719 0.2050785,-1.9004 C 0.401042,2.73535 0.601562,2.29329 0.861328,1.94238 1.12565,1.59147 1.44694,1.33171 1.8252,1.16309 2.20345,0.989909 2.63184,0.90332 3.11035,0.90332 c 0.38281,0 0.73373,0.056966 1.05274,0.1709 0.32356,0.10937 0.60839,0.27344 0.85449,0.49219 0.25065,0.21875 0.46028,0.49902 0.6289,0.84082 0.17318,0.33724 0.30306,0.736 0.38965,1.19629 0.09115,0.46028 0.13672,0.98209 0.13672,1.56543 z M 5.35938,6.93945 V 5.06641 C 5.35938,4.61523 5.32747,4.20508 5.26367,3.83594 5.20443,3.4668 5.11556,3.14323 4.99707,2.86523 4.87858,2.58724 4.72819,2.35482 4.5459,2.16797 4.36816,1.98112 4.15853,1.84212 3.91699,1.75098 3.68001,1.65527 3.41113,1.60742 3.11035,1.60742 2.74121,1.60742 2.41536,1.68262 2.13281,1.83301 1.85482,1.97884 1.6224,2.19759 1.43555,2.48926 1.2487,2.77637 1.10742,3.13639 1.01172,3.56934 0.920573,4.00228 0.875,4.5013 0.875,5.06641 v 1.87304 c 0,0.44662 0.029622,0.8545 0.088867,1.22364 C 1.02311,8.52767 1.11426,8.85124 1.2373,9.13379 1.36035,9.41634 1.51074,9.6556 1.68848,9.85156 1.87077,10.043 2.0804,10.1888 2.31738,10.2891 c 0.24154,0.0957 0.51042,0.1435 0.80664,0.1435 0.37826,0 0.70638,-0.0752 0.98438,-0.2256 C 4.38639,10.0521 4.61882,9.8265 4.80566,9.53027 4.99251,9.22949 5.13151,8.86263 5.22266,8.42969 5.3138,7.99219 5.35938,7.49544 5.35938,6.93945 Z"
         style="fill:#002c50" />
    </g>
    <g
       style="fill:none"
       id="g1203"
       transform="matrix(0.26458333,0,0,0.26458333,-96.834028,73.569201)">
      <path
         id="path1201"
         d="M 7.21965,10.2959 V 11 H 0.992109 V 10.3643 L 4.25285,6.66602 C 4.65845,6.20573 4.98202,5.80241 5.22355,5.45605 5.46509,5.10514 5.63827,4.78613 5.74309,4.49902 5.85246,4.20736 5.90715,3.9248 5.90715,3.65137 5.90715,3.25033 5.8274,2.89714 5.66789,2.5918 5.51294,2.28646 5.28052,2.0472 4.97062,1.87402 4.66073,1.70085 4.27792,1.61426 3.82219,1.61426 3.36646,1.61426 2.96997,1.71224 2.63273,1.9082 2.29549,2.10417 2.03573,2.3776 1.85344,2.72852 1.6757,3.07487 1.58684,3.46908 1.58684,3.91113 H 0.773359 c 0,-0.54687 0.120769,-1.04817 0.362301,-1.5039 C 1.38176,1.9515 1.73267,1.58919 2.1884,1.32031 2.64413,1.04688 3.18872,0.910156 3.82219,0.910156 c 0.60156,0 1.11881,0.107094 1.55176,0.321294 0.43294,0.20963 0.76562,0.51269 0.99804,0.90917 0.23698,0.39649 0.35547,0.875 0.35547,1.43555 0,0.30078 -0.05469,0.60384 -0.16406,0.90918 C 6.45858,4.79069 6.31275,5.09603 6.1259,5.40137 5.94361,5.70215 5.73397,6.00065 5.49699,6.29688 5.26457,6.5931 5.02076,6.88477 4.76555,7.17188 L 1.99016,10.2959 Z M 15.1729,5.16895 v 1.6748 c 0,0.72917 -0.0684,1.36491 -0.2051,1.90723 -0.1367,0.53776 -0.3373,0.98437 -0.6016,1.33982 -0.2598,0.3509 -0.5788,0.613 -0.957,0.7862 -0.3737,0.1731 -0.8021,0.2597 -1.2852,0.2597 -0.3828,0 -0.7337,-0.0547 -1.0527,-0.164 -0.319,-0.1094 -0.6039,-0.2758 -0.8545,-0.4991 C 9.9707,10.2458 9.76107,9.96094 9.58789,9.61914 9.41471,9.27734 9.28255,8.8763 9.19141,8.41602 9.10026,7.95117 9.05469,7.42708 9.05469,6.84375 v -1.6748 c 0,-0.73373 0.06836,-1.36719 0.20508,-1.9004 C 9.40104,2.73535 9.60156,2.29329 9.86133,1.94238 10.1257,1.59147 10.4469,1.33171 10.8252,1.16309 c 0.3783,-0.173181 0.8066,-0.25977 1.2852,-0.25977 0.3828,0 0.7337,0.056966 1.0527,0.1709 0.3236,0.10937 0.6084,0.27344 0.8545,0.49219 0.2506,0.21875 0.4603,0.49902 0.6289,0.84082 0.1732,0.33724 0.303,0.736 0.3896,1.19629 0.0912,0.46028 0.1368,0.98209 0.1368,1.56543 z m -0.8135,1.7705 V 5.06641 c 0,-0.45118 -0.0319,-0.86133 -0.0957,-1.23047 C 14.2044,3.4668 14.1156,3.14323 13.9971,2.86523 13.8786,2.58724 13.7282,2.35482 13.5459,2.16797 13.3682,1.98112 13.1585,1.84212 12.917,1.75098 12.68,1.65527 12.4111,1.60742 12.1104,1.60742 c -0.3692,0 -0.695,0.0752 -0.9776,0.22559 -0.278,0.14583 -0.5104,0.36458 -0.6973,0.65625 C 10.2487,2.77637 10.1074,3.13639 10.0117,3.56934 9.92057,4.00228 9.875,4.5013 9.875,5.06641 v 1.87304 c 0,0.44662 0.02962,0.8545 0.08887,1.22364 0.05923,0.36458 0.15043,0.68815 0.27343,0.9707 0.1231,0.28255 0.2734,0.52181 0.4512,0.71777 0.1823,0.19144 0.3919,0.33724 0.6289,0.43754 0.2415,0.0957 0.5104,0.1435 0.8066,0.1435 0.3783,0 0.7064,-0.0752 0.9844,-0.2256 0.278,-0.1549 0.5104,-0.3805 0.6973,-0.67673 0.1868,-0.30078 0.3258,-0.66764 0.417,-1.10058 0.0911,-0.4375 0.1367,-0.93425 0.1367,-1.49024 z"
         style="fill:#002c50" />
    </g>
    <g
       style="fill:none"
       id="g1207"
       transform="matrix(0.26458333,0,0,0.26458333,-96.834028,68.00917)">
      <path
         id="path1205"
         d="M 7.56145,7.78711 V 8.48438 H 0.513594 V 8.0127 L 5.11418,1.04688 H 5.79777 L 4.82707,2.73535 1.51164,7.78711 Z M 6.00969,1.04688 V 11 H 5.19621 V 1.04688 Z m 9.16321,4.12207 v 1.6748 c 0,0.72917 -0.0684,1.36491 -0.2051,1.90723 -0.1367,0.53776 -0.3373,0.98437 -0.6016,1.33982 -0.2598,0.3509 -0.5788,0.613 -0.957,0.7862 -0.3737,0.1731 -0.8021,0.2597 -1.2852,0.2597 -0.3828,0 -0.7337,-0.0547 -1.0527,-0.164 -0.319,-0.1094 -0.6039,-0.2758 -0.8545,-0.4991 C 9.9707,10.2458 9.76107,9.96094 9.58789,9.61914 9.41471,9.27734 9.28255,8.8763 9.19141,8.41602 9.10026,7.95117 9.05469,7.42708 9.05469,6.84375 v -1.6748 c 0,-0.73373 0.06836,-1.36719 0.20508,-1.9004 C 9.40104,2.73535 9.60156,2.29329 9.86133,1.94238 10.1257,1.59147 10.4469,1.33171 10.8252,1.16309 c 0.3783,-0.173181 0.8066,-0.25977 1.2852,-0.25977 0.3828,0 0.7337,0.056966 1.0527,0.1709 0.3236,0.10937 0.6084,0.27344 0.8545,0.49219 0.2506,0.21875 0.4603,0.49902 0.6289,0.84082 0.1732,0.33724 0.303,0.736 0.3896,1.19629 0.0912,0.46028 0.1368,0.98209 0.1368,1.56543 z m -0.8135,1.7705 V 5.06641 c 0,-0.45118 -0.0319,-0.86133 -0.0957,-1.23047 C 14.2044,3.4668 14.1156,3.14323 13.9971,2.86523 13.8786,2.58724 13.7282,2.35482 13.5459,2.16797 13.3682,1.98112 13.1585,1.84212 12.917,1.75098 12.68,1.65527 12.4111,1.60742 12.1104,1.60742 c -0.3692,0 -0.695,0.0752 -0.9776,0.22559 -0.278,0.14583 -0.5104,0.36458 -0.6973,0.65625 C 10.2487,2.77637 10.1074,3.13639 10.0117,3.56934 9.92057,4.00228 9.875,4.5013 9.875,5.06641 v 1.87304 c 0,0.44662 0.02962,0.8545 0.08887,1.22364 0.05923,0.36458 0.15043,0.68815 0.27343,0.9707 0.1231,0.28255 0.2734,0.52181 0.4512,0.71777 0.1823,0.19144 0.3919,0.33724 0.6289,0.43754 0.2415,0.0957 0.5104,0.1435 0.8066,0.1435 0.3783,0 0.7064,-0.0752 0.9844,-0.2256 0.278,-0.1549 0.5104,-0.3805 0.6973,-0.67673 0.1868,-0.30078 0.3258,-0.66764 0.417,-1.10058 0.0911,-0.4375 0.1367,-0.93425 0.1367,-1.49024 z"
         style="fill:#002c50" />
    </g>
    <g
       style="fill:none"
       id="g1211"
       transform="matrix(0.26458333,0,0,0.26458333,-96.834028,62.449139)">
      <path
         id="path1209"
         d="M 5.69523,0.97168 H 5.81145 V 1.68945 H 5.69523 c -0.6289,0 -1.18945,0.10254 -1.68164,0.30762 C 3.52596,2.20215 3.11353,2.49837 2.77629,2.88574 2.44361,3.26855 2.19068,3.7334 2.0175,4.28027 1.84432,4.82715 1.75773,5.4401 1.75773,6.11914 v 1.37402 c 0,0.46029 0.06153,0.87273 0.18457,1.23731 0.12305,0.36002 0.29395,0.66764 0.5127,0.92285 0.21875,0.25521 0.47396,0.44888 0.76562,0.58108 0.29167,0.1321 0.60612,0.1982 0.94336,0.1982 0.33269,0 0.63119,-0.0683 0.89551,-0.2051 C 5.32382,10.0908 5.54712,9.89941 5.72941,9.65332 5.91626,9.40723 6.05754,9.12467 6.15324,8.80566 6.2535,8.4821 6.30363,8.13574 6.30363,7.7666 6.30363,7.41569 6.25806,7.08529 6.16691,6.77539 6.08033,6.46094 5.94589,6.18294 5.76359,5.94141 5.5813,5.69987 5.35344,5.51074 5.08,5.37402 4.80656,5.2373 4.48527,5.16895 4.11613,5.16895 c -0.41927,0 -0.8112,0.0957 -1.17578,0.2871 C 2.57577,5.64746 2.27727,5.90267 2.04484,6.22168 1.81698,6.54069 1.69621,6.88932 1.68254,7.26758 L 1.21086,7.26074 C 1.24276,6.83236 1.34074,6.44727 1.5048,6.10547 1.66887,5.75911 1.88534,5.46517 2.15422,5.22363 2.42766,4.97754 2.73983,4.79069 3.09074,4.66309 3.44621,4.53092 3.82902,4.46484 4.23918,4.46484 c 0.47852,0 0.89551,0.08659 1.25098,0.25977 0.36002,0.17318 0.65852,0.41243 0.8955,0.71777 0.24154,0.30078 0.42155,0.64942 0.54004,1.0459 0.12305,0.39193 0.18457,0.80664 0.18457,1.24414 0,0.47852 -0.06836,0.92513 -0.20507,1.33985 C 6.77303,9.48242 6.57707,9.84245 6.3173,10.1523 6.0621,10.4622 5.7522,10.7038 5.38762,10.877 5.02759,11.0501 4.61971,11.1367 4.16398,11.1367 3.66268,11.1367 3.21379,11.041 2.8173,10.8496 2.42082,10.6582 2.0813,10.3939 1.79875,10.0566 1.52076,9.7194 1.30656,9.33203 1.15617,8.89453 1.01034,8.45247 0.937422,7.98079 0.937422,7.47949 v -0.875 C 0.937422,5.75684 1.0354,4.98893 1.23137,4.30078 1.42733,3.60807 1.72128,3.01335 2.1132,2.5166 2.50969,2.01986 3.00415,1.63932 3.5966,1.375 4.19361,1.10612 4.89315,0.97168 5.69523,0.97168 Z m 9.47767,4.19727 v 1.6748 c 0,0.72917 -0.0684,1.36491 -0.2051,1.90723 -0.1367,0.53776 -0.3373,0.98437 -0.6016,1.33982 -0.2598,0.3509 -0.5788,0.613 -0.957,0.7862 -0.3737,0.1731 -0.8021,0.2597 -1.2852,0.2597 -0.3828,0 -0.7337,-0.0547 -1.0527,-0.164 -0.319,-0.1094 -0.6039,-0.2758 -0.8545,-0.4991 C 9.9707,10.2458 9.76107,9.96094 9.58789,9.61914 9.41471,9.27734 9.28255,8.8763 9.19141,8.41602 9.10026,7.95117 9.05469,7.42708 9.05469,6.84375 v -1.6748 c 0,-0.73373 0.06836,-1.36719 0.20508,-1.9004 C 9.40104,2.73535 9.60156,2.29329 9.86133,1.94238 10.1257,1.59147 10.4469,1.33171 10.8252,1.16309 c 0.3783,-0.173181 0.8066,-0.25977 1.2852,-0.25977 0.3828,0 0.7337,0.056966 1.0527,0.1709 0.3236,0.10937 0.6084,0.27344 0.8545,0.49219 0.2506,0.21875 0.4603,0.49902 0.6289,0.84082 0.1732,0.33724 0.303,0.736 0.3896,1.19629 0.0912,0.46028 0.1368,0.98209 0.1368,1.56543 z m -0.8135,1.7705 V 5.06641 c 0,-0.45118 -0.0319,-0.86133 -0.0957,-1.23047 C 14.2044,3.4668 14.1156,3.14323 13.9971,2.86523 13.8786,2.58724 13.7282,2.35482 13.5459,2.16797 13.3682,1.98112 13.1585,1.84212 12.917,1.75098 12.68,1.65527 12.4111,1.60742 12.1104,1.60742 c -0.3692,0 -0.695,0.0752 -0.9776,0.22559 -0.278,0.14583 -0.5104,0.36458 -0.6973,0.65625 C 10.2487,2.77637 10.1074,3.13639 10.0117,3.56934 9.92057,4.00228 9.875,4.5013 9.875,5.06641 v 1.87304 c 0,0.44662 0.02962,0.8545 0.08887,1.22364 0.05923,0.36458 0.15043,0.68815 0.27343,0.9707 0.1231,0.28255 0.2734,0.52181 0.4512,0.71777 0.1823,0.19144 0.3919,0.33724 0.6289,0.43754 0.2415,0.0957 0.5104,0.1435 0.8066,0.1435 0.3783,0 0.7064,-0.0752 0.9844,-0.2256 0.278,-0.1549 0.5104,-0.3805 0.6973,-0.67673 0.1868,-0.30078 0.3258,-0.66764 0.417,-1.10058 0.0911,-0.4375 0.1367,-0.93425 0.1367,-1.49024 z"
         style="fill:#002c50" />
    </g>
    <g
       style="fill:none"
       id="g1215"
       transform="matrix(0.26458333,0,0,0.26458333,-96.834028,56.889106)">
      <path
         id="path1213"
         d="m 7.11027,8.36133 c 0,0.60156 -0.14127,1.1097 -0.42382,1.52441 -0.278,0.41476 -0.65625,0.72686 -1.13477,0.93656 -0.47852,0.2096 -1.014,0.3144 -1.60645,0.3144 -0.597,0 -1.13476,-0.1048 -1.61328,-0.3144 C 1.85344,10.6126 1.4729,10.3005 1.19035,9.88574 0.912357,9.47103 0.773359,8.96289 0.773359,8.36133 0.773359,7.96484 0.850833,7.60482 1.00578,7.28125 1.16529,6.95312 1.38632,6.67057 1.66887,6.43359 1.95598,6.19206 2.29094,6.00521 2.67375,5.87305 3.05656,5.74089 3.47583,5.6748 3.93156,5.6748 c 0.60156,0 1.1416,0.11622 1.62012,0.34864 C 6.0302,6.2513 6.40845,6.56576 6.68645,6.9668 6.969,7.36784 7.11027,7.83268 7.11027,8.36133 Z m -0.82031,0 C 6.28996,7.9375 6.18742,7.56608 5.98234,7.24707 5.77727,6.92806 5.49699,6.68197 5.14152,6.50879 4.78605,6.33105 4.38273,6.24219 3.93156,6.24219 3.47583,6.24219 3.07251,6.33105 2.7216,6.50879 2.37069,6.68197 2.09497,6.92806 1.89445,7.24707 1.69393,7.56608 1.59367,7.9375 1.59367,8.36133 c 0,0.44206 0.09798,0.81803 0.29395,1.12793 0.20052,0.30989 0.47851,0.54464 0.83398,0.70414 0.35547,0.1595 0.76335,0.2392 1.22363,0.2392 0.46029,0 0.86589,-0.0797 1.2168,-0.2392 C 5.51294,10.0339 5.78866,9.79915 5.98918,9.48926 6.1897,9.17936 6.28996,8.80339 6.28996,8.36133 Z M 6.85051,3.60352 c 0,0.48763 -0.12989,0.92285 -0.38965,1.30566 C 6.20565,5.28743 5.8593,5.58594 5.4218,5.80469 4.9843,6.01888 4.48983,6.12598 3.9384,6.12598 3.38241,6.12598 2.88339,6.01888 2.44133,5.80469 2.00383,5.58594 1.65747,5.28743 1.40227,4.90918 1.15161,4.52637 1.02629,4.09115 1.02629,3.60352 c 0,-0.57878 0.12532,-1.06641 0.37598,-1.4629 0.2552,-0.40104 0.60156,-0.70638 1.03906,-0.91601 0.4375,-0.20964 0.93424,-0.314454 1.49023,-0.314454 0.55143,0 1.0459,0.104814 1.4834,0.314454 0.44206,0.20963 0.79069,0.51497 1.0459,0.91601 0.25976,0.39649 0.38965,0.88412 0.38965,1.4629 z M 6.03703,3.59668 C 6.03703,3.20931 5.94361,2.86751 5.75676,2.57129 5.57447,2.27507 5.32382,2.04264 5.0048,1.87402 4.69035,1.70085 4.3326,1.61426 3.93156,1.61426 3.52596,1.61426 3.16594,1.69401 2.85148,1.85352 2.54159,2.01302 2.29549,2.24089 2.1132,2.53711 1.93547,2.83333 1.8466,3.18652 1.8466,3.59668 c 0,0.40104 0.08887,0.7474 0.2666,1.03906 0.18229,0.28711 0.43067,0.51042 0.74512,0.66992 0.31445,0.15951 0.67448,0.23926 1.08008,0.23926 0.4056,0 0.76562,-0.07975 1.08008,-0.23926 C 5.33293,5.14616 5.5813,4.92285 5.76359,4.63574 5.94589,4.34408 6.03703,3.99772 6.03703,3.59668 Z m 9.13587,1.57227 v 1.6748 c 0,0.72917 -0.0684,1.36491 -0.2051,1.90723 -0.1367,0.53776 -0.3373,0.98437 -0.6016,1.33982 -0.2598,0.3509 -0.5788,0.613 -0.957,0.7862 -0.3737,0.1731 -0.8021,0.2597 -1.2852,0.2597 -0.3828,0 -0.7337,-0.0547 -1.0527,-0.164 -0.319,-0.1094 -0.6039,-0.2758 -0.8545,-0.4991 C 9.9707,10.2458 9.76107,9.96094 9.58789,9.61914 9.41471,9.27734 9.28255,8.8763 9.19141,8.41602 9.10026,7.95117 9.05469,7.42708 9.05469,6.84375 v -1.6748 c 0,-0.73373 0.06836,-1.36719 0.20508,-1.9004 C 9.40104,2.73535 9.60156,2.29329 9.86133,1.94238 10.1257,1.59147 10.4469,1.33171 10.8252,1.16309 c 0.3783,-0.173181 0.8066,-0.25977 1.2852,-0.25977 0.3828,0 0.7337,0.056966 1.0527,0.1709 0.3236,0.10937 0.6084,0.27344 0.8545,0.49219 0.2506,0.21875 0.4603,0.49902 0.6289,0.84082 0.1732,0.33724 0.303,0.736 0.3896,1.19629 0.0912,0.46028 0.1368,0.98209 0.1368,1.56543 z m -0.8135,1.7705 V 5.06641 c 0,-0.45118 -0.0319,-0.86133 -0.0957,-1.23047 C 14.2044,3.4668 14.1156,3.14323 13.9971,2.86523 13.8786,2.58724 13.7282,2.35482 13.5459,2.16797 13.3682,1.98112 13.1585,1.84212 12.917,1.75098 12.68,1.65527 12.4111,1.60742 12.1104,1.60742 c -0.3692,0 -0.695,0.0752 -0.9776,0.22559 -0.278,0.14583 -0.5104,0.36458 -0.6973,0.65625 C 10.2487,2.77637 10.1074,3.13639 10.0117,3.56934 9.92057,4.00228 9.875,4.5013 9.875,5.06641 v 1.87304 c 0,0.44662 0.02962,0.8545 0.08887,1.22364 0.05923,0.36458 0.15043,0.68815 0.27343,0.9707 0.1231,0.28255 0.2734,0.52181 0.4512,0.71777 0.1823,0.19144 0.3919,0.33724 0.6289,0.43754 0.2415,0.0957 0.5104,0.1435 0.8066,0.1435 0.3783,0 0.7064,-0.0752 0.9844,-0.2256 0.278,-0.1549 0.5104,-0.3805 0.6973,-0.67673 0.1868,-0.30078 0.3258,-0.66764 0.417,-1.10058 0.0911,-0.4375 0.1367,-0.93425 0.1367,-1.49024 z"
         style="fill:#002c50" />
    </g>
    <g
       style="fill:none"
       id="g1219"
       transform="matrix(0.26458333,0,0,0.26458333,-98.686105,51.329079)">
      <path
         id="path1217"
         d="M 3.60727,1.00586 V 11 H 2.79379 V 2.03809 L 0.0867577,3.04297 V 2.27051 L 3.47055,1.00586 Z M 13.9872,5.16895 v 1.6748 c 0,0.72917 -0.0683,1.36491 -0.2051,1.90723 -0.1367,0.53776 -0.3372,0.98437 -0.6015,1.33982 -0.2598,0.3509 -0.5788,0.613 -0.957,0.7862 -0.3737,0.1731 -0.8021,0.2597 -1.2852,0.2597 -0.3828,0 -0.7337,-0.0547 -1.05274,-0.164 C 9.56665,10.8633 9.28182,10.6969 9.03117,10.4736 8.78508,10.2458 8.57544,9.96094 8.40227,9.61914 8.22909,9.27734 8.09693,8.8763 8.00578,8.41602 7.91464,7.95117 7.86906,7.42708 7.86906,6.84375 v -1.6748 c 0,-0.73373 0.06836,-1.36719 0.20508,-1.9004 C 8.21542,2.73535 8.41594,2.29329 8.6757,1.94238 8.94003,1.59147 9.26132,1.33171 9.63957,1.16309 10.0178,0.989909 10.4462,0.90332 10.9247,0.90332 c 0.3828,0 0.7338,0.056966 1.0528,0.1709 0.3235,0.10937 0.6084,0.27344 0.8545,0.49219 0.2506,0.21875 0.4602,0.49902 0.6289,0.84082 0.1731,0.33724 0.303,0.736 0.3896,1.19629 0.0912,0.46028 0.1367,0.98209 0.1367,1.56543 z m -0.8135,1.7705 V 5.06641 C 13.1737,4.61523 13.1418,4.20508 13.078,3.83594 13.0188,3.4668 12.9299,3.14323 12.8114,2.86523 12.693,2.58724 12.5426,2.35482 12.3603,2.16797 12.1825,1.98112 11.9729,1.84212 11.7314,1.75098 11.4944,1.65527 11.2255,1.60742 10.9247,1.60742 c -0.3691,0 -0.695,0.0752 -0.97751,0.22559 C 9.66919,1.97884 9.43677,2.19759 9.24992,2.48926 9.06307,2.77637 8.9218,3.13639 8.82609,3.56934 8.73495,4.00228 8.68937,4.5013 8.68937,5.06641 v 1.87304 c 0,0.44662 0.02963,0.8545 0.08887,1.22364 0.05925,0.36458 0.15039,0.68815 0.27344,0.9707 0.12305,0.28255 0.27344,0.52181 0.45117,0.71777 0.18229,0.19144 0.39193,0.33724 0.62895,0.43754 0.2415,0.0957 0.5104,0.1435 0.8066,0.1435 0.3783,0 0.7064,-0.0752 0.9844,-0.2256 0.278,-0.1549 0.5104,-0.3805 0.6972,-0.67673 0.1869,-0.30078 0.3259,-0.66764 0.417,-1.10058 0.0912,-0.4375 0.1367,-0.93425 0.1367,-1.49024 z m 8.9992,-1.7705 v 1.6748 c 0,0.72917 -0.0684,1.36491 -0.2051,1.90723 -0.1367,0.53776 -0.3373,0.98437 -0.6016,1.33982 -0.2598,0.3509 -0.5788,0.613 -0.957,0.7862 -0.3737,0.1731 -0.8021,0.2597 -1.2852,0.2597 -0.3828,0 -0.7337,-0.0547 -1.0527,-0.164 -0.319,-0.1094 -0.6039,-0.2758 -0.8545,-0.4991 C 16.9707,10.2458 16.7611,9.96094 16.5879,9.61914 16.4147,9.27734 16.2826,8.8763 16.1914,8.41602 16.1003,7.95117 16.0547,7.42708 16.0547,6.84375 v -1.6748 c 0,-0.73373 0.0683,-1.36719 0.2051,-1.9004 0.1412,-0.5332 0.3418,-0.97526 0.6015,-1.32617 0.2644,-0.35091 0.5856,-0.61067 0.9639,-0.77929 0.3783,-0.173181 0.8066,-0.25977 1.2852,-0.25977 0.3828,0 0.7337,0.056966 1.0527,0.1709 0.3236,0.10937 0.6084,0.27344 0.8545,0.49219 0.2506,0.21875 0.4603,0.49902 0.6289,0.84082 0.1732,0.33724 0.303,0.736 0.3896,1.19629 0.0912,0.46028 0.1368,0.98209 0.1368,1.56543 z m -0.8135,1.7705 V 5.06641 c 0,-0.45118 -0.0319,-0.86133 -0.0957,-1.23047 C 21.2044,3.4668 21.1156,3.14323 20.9971,2.86523 20.8786,2.58724 20.7282,2.35482 20.5459,2.16797 20.3682,1.98112 20.1585,1.84212 19.917,1.75098 19.68,1.65527 19.4111,1.60742 19.1104,1.60742 c -0.3692,0 -0.695,0.0752 -0.9776,0.22559 -0.278,0.14583 -0.5104,0.36458 -0.6973,0.65625 C 17.2487,2.77637 17.1074,3.13639 17.0117,3.56934 16.9206,4.00228 16.875,4.5013 16.875,5.06641 v 1.87304 c 0,0.44662 0.0296,0.8545 0.0889,1.22364 0.0592,0.36458 0.1504,0.68815 0.2734,0.9707 0.1231,0.28255 0.2734,0.52181 0.4512,0.71777 0.1823,0.19144 0.3919,0.33724 0.6289,0.43754 0.2415,0.0957 0.5104,0.1435 0.8066,0.1435 0.3783,0 0.7064,-0.0752 0.9844,-0.2256 0.278,-0.1549 0.5104,-0.3805 0.6973,-0.67673 0.1868,-0.30078 0.3258,-0.66764 0.417,-1.10058 0.0911,-0.4375 0.1367,-0.93425 0.1367,-1.49024 z"
         style="fill:#002c50" />
    </g>
    <g
       style="fill:none"
       id="g1227"
       transform="matrix(0.26458333,0,0,0.26458333,-90.770961,50.899703)">
      <line
         id="line1225"
         y2="116"
         x2="0.50000697"
         y1="-1.56951e-08"
         x1="0.5"
         style="stroke:#c3d1dc" />
    </g>
    <g
       style="fill:none"
       id="g1231"
       transform="matrix(0.26458333,0,0,0.26458333,-90.638671,81.459078)">
      <line
         id="line1229"
         y2="0.5"
         y1="0.5"
         x1="116"
         x2="0"
         style="stroke:#c3d1dc" />
    </g>
    <g
       style="fill:none"
       id="g1243"
       transform="matrix(0.26458333,0,0,0.19958095,-79.261597,66.687011)">
      <rect
         id="rect1241"
         height="74"
         width="24"
         x="0"
         y="0"
         style="fill:#c3d1dc" />
    </g>
    <g
       transform="matrix(0.26458333,0,0,0.26458333,-70.094216,58.605122)"
       id="g1249"
       style="fill:none">
      <text
         xml:space="preserve"
         style="font-style:normal;font-variant:normal;font-weight:300;font-stretch:normal;font-size:13.33129692px;line-height:1.25;font-family:Roboto;-inkscape-font-specification:'Roboto Light';text-align:center;letter-spacing:0px;word-spacing:0px;text-anchor:middle;fill:#e6a100;fill-opacity:1;stroke:none;stroke-width:0.31245226"
         x="13.106393"
         y="10.235055"
         id="text1247"><tspan
           id="tspan1245"
           x="13.106393"
           y="10.235055"
           style="font-style:normal;font-variant:normal;font-weight:bold;font-stretch:normal;font-family:Roboto;-inkscape-font-specification:'Roboto Bold';fill:#e6a100;fill-opacity:1;stroke-width:0.31245226">2035</tspan></text>
    </g>
    <g
       style="fill:none"
       id="g1235"
       transform="matrix(0.27845402,0,0,0.26458333,-90.600871,66.358936)">
      <line
         id="line1233"
         y2="1.5"
         x2="109"
         y1="1.5"
         x1="0"
         style="stroke:#e6a100;stroke-width:3.68419003;stroke-miterlimit:4;stroke-dasharray:none;stroke-opacity:1" />
    </g>
    <path
       style="fill:none;stroke:#e6a100;stroke-width:0.5;stroke-linecap:butt;stroke-linejoin:miter;stroke-miterlimit:4;stroke-dasharray:none;stroke-opacity:1"
       d="m -83.44649,61.181302 -1.67952,1.679517 v 0 l -1.67952,-1.679516"
       id="path1278" />
    <path
       id="path1284"
       d="m -85.12601,62.860819 v -5.99895"
       style="fill:none;stroke:#e6a100;stroke-width:0.5;stroke-linecap:butt;stroke-linejoin:miter;stroke-miterlimit:4;stroke-dasharray:none;stroke-opacity:1" />
    <path
       id="path1286"
       d="m -135.84949,59.220634 1.67952,-1.679517 v 0 l 1.67952,1.679516"
       style="fill:none;stroke:#06dfa7;stroke-width:0.5;stroke-linecap:butt;stroke-linejoin:miter;stroke-miterlimit:4;stroke-dasharray:none;stroke-opacity:1" />
    <path
       style="fill:none;stroke:#06dfa7;stroke-width:0.5;stroke-linecap:butt;stroke-linejoin:miter;stroke-miterlimit:4;stroke-dasharray:none;stroke-opacity:1"
       d="m -134.16997,57.541117 v 5.99895"
       id="path1288" />
    <g
       style="fill:none;stroke:#e6a100;stroke-width:4.30599737;stroke-miterlimit:4;stroke-dasharray:none;stroke-opacity:1"
       id="g1292"
       transform="matrix(0.26458333,0,0,0.20384026,-63.794884,8.8988563)" />
    <rect
       ry="1.0009705"
       y="53.151108"
       x="-78.821259"
       height="13.598372"
       width="5.7006984"
       id="rect1294"
       style="opacity:1;fill:none;fill-opacity:1;stroke:#e6a100;stroke-width:0.9656688;stroke-linecap:butt;stroke-linejoin:round;stroke-miterlimit:4;stroke-dasharray:1.93133761, 1.93133761;stroke-dashoffset:0;stroke-opacity:1;paint-order:stroke fill markers" />
  </g>
</svg>
