<?xml version="1.0" encoding="utf-8"?>
<!-- Generator: Adobe Illustrator 27.2.0, SVG Export Plug-In . SVG Version: 6.00 Build 0)  -->
<svg version="1.1" id="Layer_1" xmlns="http://www.w3.org/2000/svg" xmlns:xlink="http://www.w3.org/1999/xlink" x="0px" y="0px"
	 viewBox="0 0 16 16" style="enable-background:new 0 0 16 16;" xml:space="preserve">
<path d="M15.4,5c-1.8-0.6-3.4-0.5-4.7,0.2c-0.2,0.1-0.3,0.2-0.5,0.3c0-0.2,0.1-0.4,0.1-0.6c0-1.5-0.6-2.9-1.9-4.2L8.1,0.4L7.8,0.7
	C7.7,0.8,5.9,2.4,5.8,4.8c0,0.3,0,0.6,0.1,0.8C5.7,5.5,5.5,5.3,5.3,5.2C3.9,4.5,2.4,4.4,0.6,5L0.2,5.1l0.1,0.4C0.3,5.6,1,8,3.1,9.1
	c0.7,0.4,1.5,0.6,2.4,0.6c0.7,0,1.4-0.1,2.1-0.3v6.4h0.9V9.3c0.7,0.2,1.4,0.3,2.1,0.3c0.9,0,1.7-0.2,2.4-0.6C15,8,15.7,5.6,15.7,5.5
	l0.1-0.4L15.4,5z M8.1,1.7c0.9,1,1.4,2.1,1.4,3.2c0,1.4-0.9,2.6-1.3,3.1C7.2,7,6.7,5.9,6.7,4.8C6.8,3.4,7.6,2.2,8.1,1.7z M3.5,8.3
	c-1.3-0.7-1.9-2-2.2-2.6C2.7,5.4,3.8,5.5,4.8,6c1.3,0.7,1.9,2,2.2,2.6C5.6,8.9,4.5,8.8,3.5,8.3z M12.5,8.3c-1,0.5-2.1,0.6-3.4,0.3
	C9.3,7.9,9.9,6.7,11.2,6c1-0.5,2.2-0.6,3.5-0.3C14.4,6.4,13.8,7.7,12.5,8.3z"/>
</svg>
