<?xml version="1.0" encoding="UTF-8"?>
<svg width="16.933mm" height="16.936mm" version="1.1" viewBox="0 0 16.933 16.936" xmlns="http://www.w3.org/2000/svg">
 <path d="m2.6779 0c-1.455 0-2.6448 1.1914-2.6448 2.6464 7e-8 1.455 1.1898 2.6448 2.6448 2.6448 0.52912 0 1.0228-0.1577 1.4376-0.42788l2.1456 2.1461c-0.27832 0.41875-0.4408 0.91988-0.4408 1.4573 0 0.53698 0.16235 1.0382 0.44028 1.4568l-2.158 2.159c-0.41822-0.2776-0.91926-0.43977-1.4562-0.43977-1.455 0-2.6463 1.1893-2.6464 2.6443-2.7496e-7 1.455 1.1914 2.6469 2.6464 2.6469 1.455 0 2.6448-1.1919 2.6448-2.6469-2e-7 -0.53724-0.16244-1.0379-0.44028-1.4562l2.1585-2.1585c0.41877 0.27836 0.91985 0.44132 1.4573 0.44132 0.53702 0 1.0382-0.16283 1.4568-0.4408l2.1394 2.1389c-0.28593 0.42212-0.4532 0.93-0.4532 1.4754 0 1.455 1.1914 2.6469 2.6464 2.6469 1.455 0 2.6443-1.1919 2.6443-2.6469-1e-6 -1.455-1.1893-2.6443-2.6443-2.6443-0.52886 0-1.023 0.15742-1.4376 0.42736l-2.1456-2.1466c0.27797-0.41857 0.4408-0.91974 0.4408-1.4568 0-0.53743-0.16296-1.0385-0.44132-1.4573l2.1585-2.1585c0.41834 0.27784 0.919 0.44028 1.4562 0.44028 1.455 3e-7 2.6469-1.1898 2.6469-2.6448 0-1.455-1.1919-2.6464-2.6469-2.6464-1.455 4.1244e-7 -2.6443 1.1914-2.6443 2.6464 0 0.53698 0.16217 1.038 0.43977 1.4562l-2.159 2.158c-0.41855-0.27794-0.91977-0.44028-1.4568-0.44028-0.53739 1e-7 -1.0385 0.16248-1.4573 0.4408l-2.1389-2.1384c0.28617-0.42223 0.45372-0.93078 0.45372-1.4764 1e-7 -1.455-1.1914-2.6464-2.6464-2.6464zm-0.041341 1.0589c0.013708-3.422e-4 0.027544 0 0.041341 0 0.88302 1e-7 1.5875 0.70448 1.5875 1.5875 0 0.88302-0.70448 1.5859-1.5875 1.5859-0.88302 0-1.588-0.70293-1.588-1.5859 0-0.86922 0.68306-1.5659 1.5467-1.5875zm11.609 0c0.013708-3.422e-4 0.027544 0 0.041341 0 0.88302-1e-7 1.588 0.70448 1.588 1.5875s-0.705 1.5859-1.588 1.5859c-0.88302-3e-7 -1.588-0.70293-1.588-1.5859 0-0.86922 0.68306-1.5659 1.5467-1.5875zm-5.779 5.8198c0.88302 0 1.588 0.705 1.588 1.588 0 0.88302-0.705 1.588-1.588 1.588-0.88302-1e-6 -1.588-0.705-1.588-1.588 1e-7 -0.88302 0.705-1.588 1.588-1.588zm-5.8203 5.8203c0.88302 0 1.5859 0.705 1.5859 1.588 1e-7 0.88302-0.70293 1.588-1.5859 1.588s-1.5875-0.705-1.5875-1.588c3e-7 -0.88302 0.70448-1.588 1.5875-1.588zm11.61 0c0.88302 0 1.586 0.705 1.586 1.588 0 0.88302-0.70293 1.588-1.586 1.588-0.88302 0-1.588-0.705-1.588-1.588 0-0.88302 0.705-1.588 1.588-1.588z" color="#000000" fill-rule="evenodd" stroke-dashoffset="5.2899"/>
</svg>
