<?xml version="1.0" encoding="UTF-8"?>
<!-- Created with Inkscape (http://www.inkscape.org/) -->
<svg width="16.933mm" height="16.933mm" version="1.1" viewBox="0 0 16.933 16.933" xmlns="http://www.w3.org/2000/svg">
 <g transform="translate(-139.06 -104.07)">
  <path d="m151.85 104.07-3.7776 6.1448h6.0942l-2.7053 4.6834 0.91622 0.52917 3.621-6.2714h-6.0332l2.7869-4.531-0.90227-0.55501zm-7.461 7.3851c-1.4371 0-2.6133 1.1777-2.6133 2.6148 0 1.4371 1.1761 2.6133 2.6133 2.6133 1.4371 0 2.6133-1.1762 2.6133-2.6133 0-1.4371-1.1762-2.6148-2.6133-2.6148zm0 1.0583c0.86517 0 1.555 0.69132 1.555 1.5565s-0.68978 1.5549-1.555 1.5549c-0.86518 0-1.5544-0.68977-1.5544-1.5549s0.68924-1.5565 1.5544-1.5565zm0.24237 4.8018c-1.4636 0-2.7993 0.45468-3.7889 1.2206-0.81708 0.63237-1.4027 1.4936-1.5823 2.4681h1.0826c0.16233-0.61542 0.5604-1.1754 1.1482-1.6304 0.78359-0.60645 1.8981-0.99994 3.1404-0.99994 1.2422 0 2.3573 0.39349 3.1409 0.99994 0.58785 0.45496 0.98491 1.015 1.1467 1.6304h1.0821c-0.17959-0.97444-0.76525-1.8357-1.5823-2.4681-0.98965-0.76592-2.3238-1.2206-3.7874-1.2206z" color="#000000" fill-rule="evenodd" stroke-dashoffset="5.2899" style="-inkscape-stroke:none"/>
 </g>
</svg>
