<?xml version="1.0" encoding="UTF-8"?>
<!-- Created with Inkscape (http://www.inkscape.org/) -->
<svg width="16.933mm" height="16.933mm" version="1.1" viewBox="0 0 16.933 16.933" xmlns="http://www.w3.org/2000/svg">
 <g transform="translate(-140.61 -104.2)">
  <path d="m143.27 104.25c-1.4371 0-2.6133 1.1777-2.6133 2.6148 0 1.4371 1.1762 2.6133 2.6133 2.6133 0.53453 0 1.0327-0.16247 1.448-0.4408l2.1006 2.1012-1.5069 1.5069 1.5518 1.5518-2.1239 2.1239c-0.41949-0.28759-0.92585-0.4563-1.4697-0.4563-1.4371 0-2.6133 1.1782-2.6133 2.6153 0 1.4371 1.1762 2.6133 2.6133 2.6133 1.4371 0 2.6133-1.1762 2.6133-2.6133 0-0.51299-0.15014-0.99266-0.40824-1.3978l2.1368-2.1368 1.4371 1.4371 1.5668-1.5663 2.1456 2.1456c-0.30776 0.42899-0.48938 0.95346-0.48938 1.5182 0 1.4371 1.1761 2.6133 2.6133 2.6133 1.4371 0 2.6133-1.1762 2.6133-2.6133 0-1.4371-1.1762-2.6153-2.6133-2.6153-0.49203 0-0.95361 0.13794-1.3477 0.37724l-2.174-2.174 1.4226-1.4226-1.495-1.495 2.1265-2.1265c0.41912 0.28646 0.9246 0.45424 1.4676 0.45424 1.4371 0 2.6133-1.1761 2.6133-2.6133 0-1.4371-1.1762-2.6148-2.6133-2.6148-1.4371 0-2.6133 1.1777-2.6133 2.6148 0 0.51368 0.15055 0.9942 0.40928 1.3994l-2.1379 2.1378-1.4945-1.494-1.4821 1.4821-2.1053-2.1068c0.26628-0.40918 0.42168-0.89674 0.42168-1.4185 0-1.4371-1.1761-2.6148-2.6133-2.6148zm0 1.0583c0.86518 0 1.5549 0.69132 1.5549 1.5565 0 0.86518-0.68976 1.5549-1.5549 1.5549-0.86517 0-1.5544-0.68976-1.5544-1.5549 0-0.86517 0.68926-1.5565 1.5544-1.5565zm11.615 0c0.86517 0 1.5544 0.69132 1.5544 1.5565 0 0.86518-0.68926 1.5549-1.5544 1.5549s-1.555-0.68976-1.555-1.5549c0-0.86517 0.68978-1.5565 1.555-1.5565zm-5.8363 5.0968 2.2402 2.2402-2.2417 2.2412-2.2402-2.2402 2.2417-2.2412zm-5.779 6.5185c0.86518 0 1.5549 0.69132 1.5549 1.5565s-0.68976 1.555-1.5549 1.555c-0.86517 0-1.5544-0.68978-1.5544-1.555s0.68926-1.5565 1.5544-1.5565zm11.615 0c0.86517 0 1.5544 0.69132 1.5544 1.5565s-0.68926 1.555-1.5544 1.555-1.555-0.68978-1.555-1.555 0.68978-1.5565 1.555-1.5565z" color="#000000" fill-rule="evenodd" stroke-dashoffset="5.2899" style="-inkscape-stroke:none"/>
 </g>
</svg>
