<?xml version="1.0" encoding="UTF-8"?>
<svg width="16.933mm" height="16.936mm" version="1.1" viewBox="0 0 16.933 16.936" xmlns="http://www.w3.org/2000/svg">
 <path d="m12.7 0.025321-3.175 5.2663h5.5563l-2.6458 4.2333h1.3229l3.175-5.2917h-5.5562l2.6458-4.208h-1.3229zm-6.8797 7.383c-1.455 1e-7 -2.6443 1.1914-2.6443 2.6463 4e-7 1.455 1.1893 2.6443 2.6443 2.6443 1.455 0 2.6463-1.1893 2.6464-2.6443 0-1.455-1.1914-2.6463-2.6464-2.6463zm0 1.0583c0.88302 0 1.588 0.705 1.588 1.588-2e-7 0.88302-0.705 1.588-1.588 1.588-0.88302 0-1.588-0.705-1.588-1.588-1e-7 -0.88302 0.705-1.588 1.588-1.588zm0 5.5568c-1.3916 0-2.6568 0.29501-3.6174 0.80874-0.90503 0.48404-1.5903 1.2072-1.6666 2.1012h1.0682c0.078026-0.39129 0.43118-0.81091 1.0986-1.1679 0.76313-0.40815 1.8785-0.68316 3.1171-0.68316 1.2386 0 2.3561 0.27501 3.1192 0.68316 0.66746 0.35698 1.0206 0.7766 1.0986 1.1679h1.0682c-0.076422-0.89393-0.7636-1.6171-1.6686-2.1012-0.96055-0.51373-2.2258-0.80874-3.6174-0.80874z" color="#000000" fill-rule="evenodd" stroke-dashoffset="5.2899"/>
</svg>
