<?xml version="1.0" encoding="UTF-8"?>
<svg width="16.933mm" height="16.936mm" version="1.1" viewBox="0 0 16.933 16.936" xmlns="http://www.w3.org/2000/svg">
 <path d="m8.4295 0c-4.6498 4.1193e-8 -8.4295 3.7797-8.4295 8.4295 1.177e-7 4.6498 3.7797 8.432 8.4295 8.432 4.6498 0 8.432-3.7822 8.432-8.432 0-4.6498-3.7822-8.4295-8.432-8.4295zm0 1.0589c4.0778 2e-7 7.3732 3.2928 7.3732 7.3706s-3.2953 7.3732-7.3732 7.3732-7.3706-3.2953-7.3706-7.3732c1e-7 -4.0778 3.2928-7.3706 7.3706-7.3706zm-1.0211 2.1161v2.1167h2.1167v-2.1167h-2.1167zm0 4.2333v6.35h2.1167v-6.35h-2.1167z" color="#000000" fill-rule="evenodd" stroke-dashoffset="5.2899"/>
</svg>
