<?xml version="1.0" encoding="UTF-8"?>
<!-- Created with Inkscape (http://www.inkscape.org/) -->
<svg width="16.933mm" height="16.933mm" version="1.1" viewBox="0 0 16.933 16.933" xmlns="http://www.w3.org/2000/svg">
 <g transform="translate(-98.504 -166.46)">
  <path d="m106.97 166.58c-4.6042 0-8.3499 3.7436-8.3499 8.3478s3.7457 8.3494 8.3499 8.3494c4.6042 0 8.3473-3.7451 8.3473-8.3494s-3.7431-8.3478-8.3473-8.3478zm0 1.1131c4.0017 0 7.2321 3.233 7.2321 7.2347s-3.2305 7.2342-7.2321 7.2342c-4.0016 0-7.2347-3.2325-7.2347-7.2342s3.233-7.2347 7.2347-7.2347zm-0.52968 2.713v1.6681h1.0588v-1.6681h-1.0588zm0 2.8045v6.6192h1.0588v-6.6192h-1.0588z" color="#000000" fill-rule="evenodd" stroke-dashoffset="5.2899"/>
 </g>
</svg>
