<?xml version="1.0" encoding="UTF-8"?>
<!-- Created with Inkscape (http://www.inkscape.org/) -->
<svg width="16.933mm" height="16.936mm" version="1.1" viewBox="0 0 16.933 16.936" xmlns="http://www.w3.org/2000/svg">
 <path d="m6.2265 0.10542c-3.4031 0-6.1738 2.7707-6.1738 6.1738 1e-8 3.4031 2.7707 6.1738 6.1738 6.1738 1.5629 0 2.9918-0.58449 4.0804-1.5462l5.3868 5.3883 0.74776-0.74828-5.4038-5.4059c0.85078-1.0584 1.3606-2.4017 1.3606-3.8618 0-3.4031-2.7687-6.1738-6.1717-6.1738zm0 1.0589c2.8311 0 5.1154 2.2838 5.1154 5.1149s-2.2843 5.1154-5.1154 5.1154c-2.8311 0-5.1149-2.2843-5.1149-5.1154s2.2838-5.1149 5.1149-5.1149z" color="#000000" fill-rule="evenodd" stroke-dashoffset="5.2899"/>
</svg>
