<?xml version="1.0" encoding="UTF-8"?>
<!-- Created with Inkscape (http://www.inkscape.org/) -->
<svg width="16.933mm" height="16.933mm" version="1.1" viewBox="0 0 16.933 16.933" xmlns="http://www.w3.org/2000/svg">
 <g transform="translate(-139.06 -104.07)">
  <path d="m145.29 104.17c-3.4031 0-6.1738 2.7707-6.1738 6.1738 0 3.403 2.7707 6.1738 6.1738 6.1738 1.5624 0 2.9914-0.58394 4.0799-1.5451l5.3873 5.3873 0.74775-0.74827-5.4038-5.4059c0.85077-1.0584 1.3612-2.4017 1.3612-3.8618 0-3.4031-2.7692-6.1738-6.1722-6.1738zm0 1.0588c2.8311 0 5.1154 2.2838 5.1154 5.1149s-2.2844 5.1154-5.1154 5.1154c-2.8311 0-5.1149-2.2844-5.1149-5.1154 0-2.8311 2.2838-5.1149 5.1149-5.1149z" color="#000000" fill-rule="evenodd" stroke-dashoffset="5.2899" style="-inkscape-stroke:none"/>
 </g>
</svg>
