<?xml version="1.0" encoding="utf-8"?>
<!-- Generator: Adobe Illustrator 27.2.0, SVG Export Plug-In . SVG Version: 6.00 Build 0)  -->
<svg version="1.1" id="Layer_1" xmlns="http://www.w3.org/2000/svg" xmlns:xlink="http://www.w3.org/1999/xlink" x="0px" y="0px"
	 viewBox="0 0 48 48" style="enable-background:new 0 0 48 48;" xml:space="preserve">
<style type="text/css">
	.st0{fill-rule:evenodd;clip-rule:evenodd;}
</style>
<path class="st0" d="M12.4,3L2.5,36h2H12v9h3v-9h18v9h3v-9h9.5L35.6,3L12.4,3L12.4,3z M14.6,6h7.9v6h-9.7C12.8,12,14.6,6,14.6,6z
	 M25.5,6h7.9l1.8,6h-9.7C25.5,12,25.5,6,25.5,6z M11.9,15h10.6v6H10.1L11.9,15z M25.5,15h10.6l1.8,6H25.5V15z M9.2,24h13.3v9h-16
	L9.2,24L9.2,24z M25.5,24h13.3l2.7,9h-16L25.5,24L25.5,24z"/>
</svg>
