<?xml version="1.0" encoding="UTF-8"?>
<svg width="16.933mm" height="16.936mm" version="1.1" viewBox="0 0 16.933 16.936" xmlns="http://www.w3.org/2000/svg">
 <path d="m4.3692 1.0589-3.4923 11.64h0.71107 2.6443v3.176h1.0589v-3.176h6.3516v3.176h1.0563v-3.176h3.3574l-3.4918-11.64h-8.1954zm0.78703 1.0583h2.7812v2.1151h-3.4163l0.6351-2.1151zm3.8401 0h2.7812l0.6351 2.1151h-3.4163v-2.1151zm-4.793 3.174h3.7341v2.1172h-4.3692l0.6351-2.1172zm4.793 0h3.7341l0.6351 2.1172h-4.3692v-2.1172zm-5.7459 3.1755h4.6871v3.176h-5.6405l0.95343-3.176zm5.7459 0h4.6871l0.95343 3.176h-5.6405v-3.176z" color="#000000" fill-rule="evenodd" stroke-dashoffset="5.2899"/>
</svg>
