<?xml version="1.0" encoding="UTF-8"?>
<!-- Created with Inkscape (http://www.inkscape.org/) -->
<svg width="16.933mm" height="16.933mm" version="1.1" viewBox="0 0 16.933 16.933" xmlns="http://www.w3.org/2000/svg">
 <g transform="translate(-157.65 -117.38)">
  <path d="m161.96 118.23-3.3827 11.434h0.709 2.357v4.099h0.96841v-4.099h7.2595v4.099h0.96842v-4.099h3.1946l-3.3864-11.434h-8.6878zm0.79117 1.0588h3.0236v1.9141h-3.59l0.56637-1.9141zm4.0819 0h3.0257l0.56637 1.9141h-3.592v-1.9141zm-4.9614 2.9724h3.9031v2.3792h-4.607l0.70383-2.3792zm4.9614 0h3.9057l0.70435 2.3792h-4.6101v-2.3792zm-5.9784 3.4375h4.9201v2.9063h-5.7795l0.85938-2.9063zm5.9784 0h4.9232l0.85989 2.9063h-5.7831v-2.9063z" color="#000000" fill-rule="evenodd" stroke-dashoffset="5.2899" stroke-width="1.0583"/>
 </g>
</svg>
