<?xml version="1.0" encoding="utf-8"?>
<!-- Generator: Adobe Illustrator 27.2.0, SVG Export Plug-In . SVG Version: 6.00 Build 0)  -->
<svg version="1.1" id="Layer_1" xmlns="http://www.w3.org/2000/svg" xmlns:xlink="http://www.w3.org/1999/xlink" x="0px" y="0px"
	 viewBox="0 0 16 16" style="enable-background:new 0 0 16 16;" xml:space="preserve">
<path d="M12.3,0.4H3.7L0.4,8.5h1.9v7.1h11.5V8.5h1.8L12.3,0.4z M12.6,3.4L12.6,3.4L13.2,5h-2.8l-0.2-1.6H12.6z M11.7,1.2l0.5,1.3
	h-2.1L10,1.2H11.7z M6.9,1.2h2.3l0.2,1.3H6.7L6.9,1.2z M6.5,3.4h2.9L9.6,5H6.3L6.5,3.4z M9.7,5.8l0.2,1.9H5.8l0.3-1.9H9.7z M4.2,1.2
	h1.8L5.8,2.5H3.7L4.2,1.2z M3.4,3.4h2.3L5.4,5H2.7L3.4,3.4z M1.6,7.7l0.8-1.9h2.9L5,7.7H1.6z M5.3,11h2.4v3.8H5.3
	C5.3,14.1,5.3,12.9,5.3,11z M12.9,14.8H8.7v-4.7H4.4l0,0.5c0,1.4,0,3.4,0,4.3H3.1V8.5h9.8V14.8z M10.7,7.7l-0.2-1.9h3.1l0.8,1.9
	H10.7z"/>
</svg>
