<?xml version="1.0" encoding="utf-8"?>
<!-- Generator: Adobe Illustrator 27.2.0, SVG Export Plug-In . SVG Version: 6.00 Build 0)  -->
<svg version="1.1" id="Layer_1" xmlns="http://www.w3.org/2000/svg" xmlns:xlink="http://www.w3.org/1999/xlink" x="0px" y="0px"
	 viewBox="0 0 16 16" style="enable-background:new 0 0 16 16;" xml:space="preserve">
<style type="text/css">
	.st0{fill-rule:evenodd;clip-rule:evenodd;}
</style>
<path class="st0" d="M7.5,0v4C6.7,4.2,6.1,5,6.1,5.9c0,0.2,0,0.3,0.1,0.5L3,8.1L3.5,9l3.1-1.8c0.2,0.3,0.6,0.5,0.9,0.6v7H1.6v1h5.9
	v0h1v0h5.9v-1H8.5v-7c0.4-0.1,0.7-0.3,1-0.6L12.7,9l0.5-0.9L9.9,6.3c0,0,0,0,0,0c0-0.1,0-0.3,0-0.4C9.9,5,9.3,4.2,8.5,4V0L7.5,0
	L7.5,0z M8,4.9c0.5,0,1,0.4,1,1s-0.4,1-1,1c-0.5,0-1-0.4-1-1C7,5.3,7.5,4.9,8,4.9z"/>
</svg>
