<?xml version="1.0" encoding="UTF-8"?>
<svg width="16.933mm" height="16.936mm" version="1.1" viewBox="0 0 16.933 16.936" xmlns="http://www.w3.org/2000/svg">
 <path d="m8.4667 0.025321v4.2762c-0.89922 0.23858-1.5663 1.0686-1.5663 2.0423 0 0.1682 0.019787 0.33204 0.057361 0.48938l-3.3874 1.956 0.52917 0.91571 3.3548-1.9358c0.26835 0.29432 0.61807 0.51241 1.0123 0.61702v7.4889h-6.35v1.0583h6.35v5.17e-4h1.0589v-5.17e-4h6.3495v-1.0583h-6.3495v-7.4889c0.41594-0.11036 0.7822-0.34745 1.0557-0.66663l3.4422 1.9854 0.52917-0.91571-3.5037-2.0226c3.4e-5 -1.65e-4 -3.4e-5 -3.517e-4 0-5.168e-4 0.027938-0.13666 0.042891-0.27777 0.042891-0.4222 0-0.97361-0.66709-1.8037-1.5663-2.0423v-4.2762h-1.0589zm0.52968 5.2658c0.5765 2e-7 1.0366 0.46232 1.0366 1.0526s-0.46013 1.0526-1.0366 1.0526c-0.5765 0-1.0371-0.46232-1.0371-1.0526-1e-7 -0.59033 0.46065-1.0526 1.0371-1.0526z" color="#000000" fill-rule="evenodd" stroke-dashoffset="5.2899"/>
</svg>
