<?xml version="1.0" encoding="UTF-8"?>
<!-- Created with Inkscape (http://www.inkscape.org/) -->
<svg width="16.933mm" height="16.936mm" version="1.1" viewBox="0 0 16.933 16.936" xmlns="http://www.w3.org/2000/svg">
 <g transform="translate(-139.29 -100.92)">
  <path d="m148.28 100.92-1.0413 0.01344-0.80719 4.7444c-0.3303 0.27888-0.57391 0.65777-0.68265 1.0883l-3.7874 2.6965 0.44132 0.94361 4.2338-1.1038-0.75706 8.5473h3.7868l-0.5519-8.5297 4.1651 1.0862 0.44183-0.94361-3.9594-2.8184c-0.10301-0.32219-0.28273-0.61119-0.51729-0.84543l-0.96479-4.8788zm-0.4806 3.0272 0.2496 1.2568c-0.09068-0.01222-0.18316-0.01861-0.27698-0.01861-0.0618 0-0.12297 0.00291-0.18346 0.00827l0.21084-1.2464zm-0.02738 2.297c0.57408 0 1.0294 0.4548 1.0294 1.0289 0 0.57409-0.45531 1.0273-1.0294 1.0273s-1.0273-0.45324-1.0273-1.0273c0-0.57408 0.45325-1.0289 1.0273-1.0289zm1.9792 1.6903 1.0129 0.7214-1.203-0.31264c0.07743-0.12818 0.14152-0.26487 0.19017-0.40876zm-3.9284 0.07751c0.04857 0.12696 0.10901 0.24788 0.18035 0.36174l-1.0847 0.28215 0.90434-0.64389zm2.2319 1.3276 0.4811 7.4512h-1.5002l0.65939-7.4331c0.02551 9.4e-4 0.05126 0.00155 0.077 0.00155 0.0958 0 0.19015-0.00693 0.28267-0.01964z" color="#000000" fill-rule="evenodd" stroke-dashoffset="5.2899" style="-inkscape-stroke:none"/>
 </g>
</svg>
