<?xml version="1.0" standalone="no"?>
<!DOCTYPE svg PUBLIC "-//W3C//DTD SVG 20010904//EN"
 "http://www.w3.org/TR/2001/REC-SVG-20010904/DTD/svg10.dtd">
<svg version="1.0" xmlns="http://www.w3.org/2000/svg"
 width="512.000000pt" height="512.000000pt" viewBox="0 0 512.000000 512.000000"
 preserveAspectRatio="xMidYMid meet">
<metadata>
Created by potrace 1.14, written by Peter Selinger 2001-2017
</metadata>
<g transform="translate(0.000000,512.000000) scale(0.100000,-0.100000)"
fill="#000000" stroke="none">
<path d="M2415 4162 c-72 -48 -229 -152 -350 -231 -121 -79 -222 -146 -224
-148 -5 -3 51 -53 60 -53 4 0 37 -20 74 -45 37 -26 73 -44 79 -42 6 3 121 78
256 167 l245 163 39 -23 c22 -13 45 -27 50 -32 22 -19 419 -278 426 -278 8 0
187 115 204 130 9 9 -697 480 -717 479 -7 0 -71 -39 -142 -87z"/>
<path d="M1828 3378 l-208 -139 110 -74 c61 -41 115 -75 120 -75 4 0 10 -3 12
-7 4 -10 175 -123 185 -123 5 0 102 62 216 139 l209 139 -44 30 c-99 70 -379
252 -386 251 -4 -1 -100 -64 -214 -141z"/>
<path d="M2852 3377 c-117 -78 -208 -143 -202 -145 7 -3 100 -63 207 -134 107
-71 201 -132 208 -134 7 -3 86 44 176 104 90 60 183 121 207 135 23 15 42 31
42 35 0 7 -412 283 -421 281 -2 0 -100 -64 -217 -142z"/>
<path d="M1340 3055 c-102 -68 -196 -131 -209 -140 l-23 -18 203 -134 c112
-75 209 -137 215 -140 6 -2 107 59 224 136 l212 140 -212 141 c-116 77 -214
140 -218 139 -4 0 -90 -56 -192 -124z"/>
<path d="M2350 3044 c-113 -75 -206 -139 -208 -143 -1 -5 35 -32 80 -62 46
-30 88 -57 93 -61 34 -25 238 -158 243 -158 16 0 420 276 415 284 -5 8 -408
276 -415 276 -2 0 -95 -61 -208 -136z"/>
<path d="M369 2804 c-195 -130 -355 -239 -357 -244 -3 -9 706 -483 717 -478
18 8 201 134 201 138 0 3 -113 80 -252 172 l-251 166 252 168 c138 91 251 169
251 173 0 6 -139 101 -186 128 -18 10 -58 -13 -375 -223z"/>
<path d="M4292 2973 c-56 -36 -102 -69 -102 -73 0 -3 112 -80 250 -171 137
-90 250 -166 250 -169 0 -3 -113 -79 -250 -170 -137 -91 -250 -167 -250 -170
0 -10 201 -135 213 -132 21 6 707 464 707 473 0 5 -18 20 -41 34 -22 15 -182
120 -356 236 -173 115 -316 209 -317 209 -1 0 -48 -30 -104 -67z"/>
<path d="M1831 2700 l-212 -140 212 -141 c116 -77 215 -139 219 -137 17 6 420
273 419 278 0 4 -402 271 -419 278 -4 1 -102 -61 -219 -138z"/>
<path d="M2858 2702 c-114 -75 -208 -139 -208 -142 0 -3 94 -67 209 -143 186
-124 211 -137 231 -127 19 10 232 150 255 168 6 4 40 27 78 51 37 24 67 46 67
50 0 6 -393 269 -414 277 -6 2 -104 -58 -218 -134z"/>
<path d="M2350 2365 c-113 -74 -206 -139 -208 -143 -2 -6 326 -230 406 -276 8
-5 89 42 222 131 115 76 210 140 210 143 0 5 -412 280 -420 280 -3 0 -97 -61
-210 -135z"/>
<path d="M3368 2362 c-114 -75 -208 -139 -208 -142 0 -5 403 -272 420 -278 7
-3 75 41 333 213 l97 66 -162 107 c-90 59 -164 110 -166 115 -2 4 -8 7 -13 7
-6 0 -27 11 -47 25 -20 14 -39 25 -42 24 -3 0 -98 -62 -212 -137z"/>
<path d="M1835 2025 c-109 -73 -200 -137 -202 -142 -3 -9 30 -34 126 -96 35
-23 71 -46 79 -52 160 -106 207 -135 213 -133 15 6 418 273 418 278 1 7 -417
280 -426 279 -5 0 -98 -61 -208 -134z"/>
<path d="M2858 2022 c-115 -75 -208 -139 -208 -142 0 -3 95 -67 210 -143 137
-91 213 -136 222 -131 111 68 419 279 410 282 -6 2 -102 64 -213 138 -111 74
-205 134 -208 134 -3 0 -99 -62 -213 -138z"/>
<path d="M1936 1412 l-98 -66 23 -19 c42 -34 689 -457 699 -457 20 0 722 472
714 479 -35 32 -198 132 -208 128 -7 -3 -119 -75 -248 -161 -130 -86 -243
-158 -251 -162 -9 -3 -107 56 -258 157 -134 89 -250 163 -259 165 -8 1 -59
-27 -114 -64z"/>
</g>
</svg>
