<?xml version="1.0" standalone="no"?>
<!DOCTYPE svg PUBLIC "-//W3C//DTD SVG 20010904//EN"
 "http://www.w3.org/TR/2001/REC-SVG-20010904/DTD/svg10.dtd">
<svg version="1.0" xmlns="http://www.w3.org/2000/svg"
 width="400.000000pt" height="400.000000pt" viewBox="0 0 400.000000 400.000000"
 preserveAspectRatio="xMidYMid meet">
<metadata>
Created by potrace 1.14, written by Peter Selinger 2001-2017
</metadata>
<g transform="translate(0.000000,400.000000) scale(0.100000,-0.100000)"
fill="#000000" stroke="none">
<path d="M1577 3431 c-22 -26 -22 -29 -21 -394 l1 -367 23 -25 c20 -21 32 -25
64 -23 33 2 44 9 63 37 23 34 23 36 23 388 0 348 0 354 -22 383 -19 26 -28 30
-65 28 -34 -1 -49 -7 -66 -27z"/>
<path d="M2043 3066 c-17 -8 -42 -59 -99 -201 -89 -221 -95 -252 -53 -289 43
-38 80 -35 118 11 17 21 31 42 31 47 0 4 29 82 65 173 81 205 83 238 14 262
-37 13 -46 12 -76 -3z"/>
<path d="M1130 3046 c-54 -36 -51 -63 24 -234 36 -81 74 -168 85 -194 13 -30
30 -52 50 -62 32 -17 50 -14 94 16 38 27 35 58 -19 185 -26 59 -63 146 -83
192 -27 62 -44 89 -66 102 -40 23 -45 23 -85 -5z"/>
<path d="M509 3014 c-62 -64 -66 -59 230 -356 249 -251 268 -268 302 -268 45
0 89 42 89 86 0 25 -38 67 -268 297 -196 196 -276 269 -295 271 -18 2 -35 -6
-58 -30z"/>
<path d="M2411 2773 c-137 -137 -255 -262 -264 -279 -24 -47 -6 -98 42 -118
20 -7 42 -11 49 -7 7 4 133 126 279 271 243 242 265 266 265 297 0 49 -34 83
-84 83 -38 0 -48 -9 -287 -247z"/>
<path d="M1513 2535 c-35 -6 -63 -10 -63 -9 0 1 -36 -15 -80 -37 -44 -21 -85
-39 -90 -39 -5 0 -45 -35 -90 -77 -71 -67 -87 -89 -129 -177 -46 -96 -52 -117
-67 -210 -3 -21 -7 -47 -9 -58 -2 -11 0 -41 5 -66 4 -26 11 -66 15 -89 12 -81
108 -263 139 -263 8 0 139 89 292 198 154 109 311 219 349 244 l70 47 130 7
c72 3 141 8 155 9 14 2 44 4 68 4 38 1 42 3 38 24 -18 98 -79 216 -152 295
-103 112 -227 177 -384 201 -83 13 -106 12 -197 -4z"/>
<path d="M2655 2415 c-16 -8 -93 -41 -169 -74 -76 -33 -148 -69 -159 -80 -30
-29 -32 -83 -4 -109 44 -41 68 -37 268 49 168 73 189 85 205 115 18 34 18 35
-1 72 -18 33 -24 37 -65 40 -25 1 -58 -5 -75 -13z"/>
<path d="M490 2411 c-13 -4 -32 -20 -42 -37 -16 -27 -17 -35 -5 -70 14 -38 15
-39 193 -112 203 -84 267 -97 299 -62 12 13 20 37 21 61 1 33 -4 43 -30 62
-26 19 -393 169 -407 166 -2 -1 -15 -4 -29 -8z"/>
<path d="M3787 2043 c-1 -1 -54 -4 -117 -8 -63 -3 -132 -8 -154 -10 -53 -6
-147 -14 -236 -20 -41 -3 -96 -13 -122 -21 -42 -14 -52 -23 -97 -95 -48 -74
-64 -127 -41 -130 20 -3 25 -4 37 -12 7 -4 151 -5 320 -1 169 3 354 7 410 7
64 0 100 4 96 10 -3 6 4 8 19 5 23 -4 24 -2 24 44 -1 26 -5 48 -11 48 -5 0 -4
4 3 9 8 4 14 12 14 16 0 4 -6 12 -14 16 -8 6 -9 9 -1 9 12 0 12 17 0 38 -5 7
-3 12 3 12 6 0 8 5 3 13 -4 6 -8 26 -8 42 l0 30 -63 0 c-35 0 -64 -1 -65 -2z"/>
<path d="M93 1959 c-27 -17 -32 -26 -31 -60 0 -27 8 -49 23 -67 l23 -27 369 0
c359 0 369 1 398 22 24 17 30 28 29 58 -1 20 -10 48 -20 61 l-19 25 -370 5
c-360 4 -371 3 -402 -17z"/>
<path d="M2876 1973 c-4 -4 -37 -9 -74 -10 -59 -3 -225 -18 -304 -27 -16 -2
-37 -4 -47 -5 -11 0 -34 -13 -52 -28 -18 -16 -29 -21 -25 -13 5 8 -23 -18 -62
-58 -39 -40 -75 -73 -79 -74 -4 0 -7 -4 -5 -10 1 -5 -2 -7 -7 -4 -5 3 -21 -8
-35 -25 -15 -17 -30 -29 -33 -25 -3 3 -12 1 -20 -6 -7 -6 -16 -8 -20 -5 -3 4
-12 2 -20 -5 -8 -6 -51 -11 -103 -11 -49 0 -87 -4 -85 -8 3 -4 -76 -6 -175 -5
-99 1 -177 0 -175 -2 2 -3 -9 -12 -25 -21 -72 -39 -149 -97 -145 -109 3 -7 0
-10 -5 -7 -14 9 -52 -14 -44 -27 4 -7 3 -8 -4 -4 -15 9 -73 -34 -65 -47 3 -6
1 -7 -5 -3 -14 9 -72 -33 -72 -51 0 -8 -4 -12 -9 -9 -5 4 -8 -2 -7 -11 2 -11
12 -19 27 -19 13 -1 49 -5 79 -8 74 -9 205 -17 316 -19 89 -2 90 -2 92 -28 2
-19 -12 -39 -55 -82 -32 -31 -62 -57 -68 -57 -5 -1 -23 -18 -39 -38 -17 -20
-56 -59 -88 -87 -54 -46 -175 -157 -223 -204 -32 -31 -41 -45 -49 -74 -8 -32
19 -97 40 -97 8 0 14 -5 14 -10 0 -6 6 -10 13 -9 6 1 19 0 27 -3 8 -3 35 -12
60 -19 25 -7 50 -14 55 -16 6 -2 25 -6 43 -9 17 -4 32 -10 32 -14 0 -5 9 -6
20 -3 12 3 20 0 20 -6 0 -7 6 -11 13 -10 13 2 66 -10 82 -20 6 -3 15 -6 20 -6
6 0 48 -12 95 -27 71 -23 98 -26 165 -22 104 6 105 6 105 14 0 7 60 36 70 34
6 -1 73 68 79 82 3 5 24 38 48 74 24 36 65 98 91 137 27 40 52 70 57 65 4 -4
5 -2 2 5 -4 6 0 18 8 26 8 9 15 19 15 22 0 4 13 24 29 44 16 20 28 39 27 42 0
3 18 32 42 65 24 32 46 64 50 69 10 15 92 58 92 48 0 -4 5 -1 10 7 8 12 38 15
177 14 186 -1 263 -5 263 -13 0 -3 35 -7 78 -8 42 0 113 -4 157 -7 122 -9 180
-13 300 -20 61 -4 126 -9 145 -12 78 -11 180 -13 180 -4 0 6 8 10 19 10 14 0
18 6 15 26 -1 14 -5 28 -8 31 -3 3 -1 14 5 24 6 13 6 19 0 19 -7 0 -7 8 -2 23
6 14 5 30 -1 41 -8 14 -8 17 2 11 9 -6 9 -3 1 14 -8 14 -8 21 -1 21 7 0 8 6 2
18 -5 9 -6 26 -2 37 4 11 3 26 -2 33 -7 8 -7 12 2 12 9 0 10 3 1 13 -8 10 -7
17 1 25 9 9 9 12 0 12 -9 0 -10 5 -3 18 5 10 6 24 1 31 -4 8 -7 33 -5 57 1 24
-3 48 -9 53 -6 5 -151 7 -336 5 -678 -8 -677 -8 -697 12 -10 9 -8 15 7 29 11
10 20 24 20 32 0 7 7 16 15 19 8 4 15 12 15 20 0 7 7 17 16 22 9 5 15 11 13
13 -1 2 10 24 25 47 15 24 25 46 22 50 -3 3 -6 -1 -7 -9 -1 -8 -4 -3 -8 11 -6
20 -13 25 -38 24 -18 0 -30 3 -27 8 6 10 -40 11 -50 1z"/>
<path d="M2208 1915 c-2 -1 -46 -6 -98 -9 -221 -16 -206 -12 -310 -82 -139
-94 -157 -110 -143 -125 10 -10 73 -20 73 -11 0 1 -10 7 -22 12 -17 7 -9 9 34
6 32 -2 56 0 53 4 -2 3 2 7 10 7 8 0 12 -4 9 -8 -2 -4 5 -7 16 -6 11 1 20 5
20 9 0 4 10 4 23 -1 57 -21 260 10 243 38 -3 4 4 7 16 6 12 -1 29 6 38 14 9 9
40 38 68 64 29 26 52 52 52 56 0 14 -71 36 -82 26z"/>
<path d="M895 1643 c-26 -5 -83 -27 -137 -52 -24 -11 -90 -41 -148 -66 -58
-25 -115 -55 -127 -67 -50 -47 -5 -140 65 -133 54 5 395 155 417 183 27 37 23
77 -10 112 -16 17 -31 29 -34 29 -3 -1 -15 -3 -26 -6z"/>
<path d="M1055 1296 c-16 -7 -112 -71 -212 -142 -100 -71 -221 -156 -268 -189
-78 -54 -85 -62 -85 -93 0 -20 4 -31 10 -27 6 4 17 1 25 -5 8 -6 19 -9 24 -6
5 4 12 2 15 -3 3 -5 26 -12 51 -15 25 -4 45 -11 45 -16 0 -5 8 -8 18 -8 9 0
58 -12 107 -27 108 -32 173 -34 221 -6 22 13 34 16 34 8 0 -7 5 -4 11 6 6 9
14 15 19 12 4 -3 11 2 14 11 3 8 10 13 14 10 5 -3 24 10 42 29 19 19 37 35 40
35 4 0 29 21 57 48 28 26 81 74 119 107 121 107 174 163 174 184 0 25 -33 60
-57 62 -10 1 -27 3 -38 4 -11 2 -51 6 -90 9 -38 3 -86 8 -105 10 -120 15 -157
15 -185 2z"/>
</g>
</svg>
