<?xml version="1.0" encoding="UTF-8" standalone="no"?>
<svg
   xmlns:dc="http://purl.org/dc/elements/1.1/"
   xmlns:cc="http://creativecommons.org/ns#"
   xmlns:rdf="http://www.w3.org/1999/02/22-rdf-syntax-ns#"
   xmlns:svg="http://www.w3.org/2000/svg"
   xmlns="http://www.w3.org/2000/svg"
   xmlns:sodipodi="http://sodipodi.sourceforge.net/DTD/sodipodi-0.dtd"
   xmlns:inkscape="http://www.inkscape.org/namespaces/inkscape"
   height="100px"
   width="100px"
   fill="#000000"
   version="1.1"
   x="0px"
   y="0px"
   viewBox="0 0 100 100"
   id="svg6"
   sodipodi:docname="noun_Hospital_1221591.svg"
   inkscape:version="0.92.3 (2405546, 2018-03-11)">
  <metadata
     id="metadata12">
    <rdf:RDF>
      <cc:Work
         rdf:about="">
        <dc:format>image/svg+xml</dc:format>
        <dc:type
           rdf:resource="http://purl.org/dc/dcmitype/StillImage" />
      </cc:Work>
    </rdf:RDF>
  </metadata>
  <defs
     id="defs10" />
  <sodipodi:namedview
     pagecolor="#ffffff"
     bordercolor="#666666"
     borderopacity="1"
     objecttolerance="10"
     gridtolerance="10"
     guidetolerance="10"
     inkscape:pageopacity="0"
     inkscape:pageshadow="2"
     inkscape:window-width="1920"
     inkscape:window-height="1052"
     id="namedview8"
     showgrid="false"
     inkscape:zoom="2.36"
     inkscape:cx="50"
     inkscape:cy="50"
     inkscape:window-x="0"
     inkscape:window-y="0"
     inkscape:window-maximized="1"
     inkscape:current-layer="svg6" />
  <g
     transform="translate(0,-952.36218)"
     id="g4">
    <path
       style="text-indent:0;text-transform:none;direction:ltr;block-progression:tb;baseline-shift:baseline;color:#000000;enable-background:accumulate;"
       d="m 33.167483,958.36217 a 2.2020749,2.2011 0 0 0 -2.201562,2.20061 l 0,22.75425 -22.764295,0 a 2.2020749,2.2011 0 0 0 -2.201634,2.20061 l 0,33.68906 a 2.2020749,2.2011 0 0 0 2.201634,2.2006 l 22.764295,0 0,22.7543 a 2.2020749,2.2011 0 0 0 2.201562,2.2006 l 33.664996,0 a 2.2020749,2.2011 0 0 0 2.201634,-2.2006 l 0,-22.7543 22.764294,0 a 2.2020749,2.2011 0 0 0 2.201601,-2.2006 l 0,-33.68906 a 2.2020749,2.2011 0 0 0 -2.201601,-2.20061 l -22.764294,0 0,-22.75425 a 2.2020749,2.2011 0 0 0 -2.201634,-2.20061 l -33.664996,0 z m 2.201634,4.40122 29.261763,0 0,22.75425 a 2.2020749,2.2011 0 0 0 2.201599,2.20061 l 22.76433,0 0,29.28785 -22.76433,0 a 2.2020749,2.2011 0 0 0 -2.201599,2.2006 l 0,22.7543 -29.261763,0 0,-22.7543 a 2.2020749,2.2011 0 0 0 -2.201634,-2.2006 l -22.764294,0 0,-29.28785 22.764294,0 a 2.2020749,2.2011 0 0 0 2.201634,-2.20061 l 0,-22.75425 z"
       marker="none"
       visibility="visible"
       display="inline"
       overflow="visible"
       id="path2"
       stroke="none"
       fill-rule="evenodd"
       fill-opacity="1"
       fill="#000000" />
  </g>
</svg>
