<?xml version="1.0" encoding="UTF-8" standalone="no"?>
<svg
   xmlns:dc="http://purl.org/dc/elements/1.1/"
   xmlns:cc="http://creativecommons.org/ns#"
   xmlns:rdf="http://www.w3.org/1999/02/22-rdf-syntax-ns#"
   xmlns:svg="http://www.w3.org/2000/svg"
   xmlns="http://www.w3.org/2000/svg"
   height="100px"
   width="100px"
   fill="#000000"
   version="1.1"
   x="0px"
   y="0px"
   viewBox="0 0 100 100"
   id="svg6">
  <metadata
     id="metadata12">
    <rdf:RDF>
      <cc:Work
         rdf:about="">
        <dc:format>image/svg+xml</dc:format>
        <dc:type
           rdf:resource="http://purl.org/dc/dcmitype/StillImage" />
        <dc:title></dc:title>
      </cc:Work>
    </rdf:RDF>
  </metadata>
  <defs
     id="defs10" />
  <g
     transform="matrix(0.87617531,0,0,0.87617531,6.7388923,-827.08774)"
     id="g4">
    <g
       style="fill:#000000"
       id="g845"
       transform="matrix(2.4365133,0,0,2.4365133,-8.2773862,943.59462)">
      <path
         id="path834"
         d="m 43.59,20.2 -19,-14 a 1,1 0 0 0 -1.18,0 l -19,14 a 1,1 0 0 0 1.18,1.61 L 8,20 v 21 a 1,1 0 0 0 1,1 h 30 a 1,1 0 0 0 1,-1 V 20 l 2.41,1.78 A 1,1 0 0 0 43,22 1,1 0 0 0 43.8,21.59 1,1 0 0 0 43.59,20.2 Z M 20,40 V 28 h 8 v 12 z m 18,0 H 30 V 27 A 1,1 0 0 0 29,26 H 19 a 1,1 0 0 0 -1,1 V 40 H 10 V 18.56 L 24,8.24 38,18.56 Z" />
    </g>
  </g>
</svg>
