<?xml version="1.0" encoding="UTF-8" standalone="no"?>
<svg
   xmlns:dc="http://purl.org/dc/elements/1.1/"
   xmlns:cc="http://creativecommons.org/ns#"
   xmlns:rdf="http://www.w3.org/1999/02/22-rdf-syntax-ns#"
   xmlns:svg="http://www.w3.org/2000/svg"
   xmlns="http://www.w3.org/2000/svg"
   id="svg4"
   version="1.1"
   viewBox="0 0 16 16"
   class="bi bi-layers"
   fill="currentColor"
   height="16"
   width="16">
  <metadata
     id="metadata10">
    <rdf:RDF>
      <cc:Work
         rdf:about="">
        <dc:format>image/svg+xml</dc:format>
        <dc:type
           rdf:resource="http://purl.org/dc/dcmitype/StillImage" />
        <dc:title></dc:title>
      </cc:Work>
    </rdf:RDF>
  </metadata>
  <defs
     id="defs8" />
  <path
     style="fill:#212529;fill-opacity:1"
     id="path2"
     d="M8.235 1.559a.5.5 0 0 0-.47 0l-7.5 4a.5.5 0 0 0 0 .882L3.188 8 .264 9.559a.5.5 0 0 0 0 .882l7.5 4a.5.5 0 0 0 .47 0l7.5-4a.5.5 0 0 0 0-.882L12.813 8l2.922-1.559a.5.5 0 0 0 0-.882l-7.5-4zm3.515 7.008L14.438 10 8 13.433 1.562 10 4.25 8.567l3.515 1.874a.5.5 0 0 0 .47 0l3.515-1.874zM8 9.433 1.562 6 8 2.567 14.438 6 8 9.433z" />
</svg>
