<svg width="0" height="0" class="hidden">
  <symbol xmlns="http://www.w3.org/2000/svg" fill-rule="evenodd" clip-rule="evenodd" shape-rendering="geometricPrecision" text-rendering="geometricPrecision" image-rendering="optimizeQuality" viewBox="0 0 1.188 1.187" id="close">
    <path d="M0 .123l.47.469-.47.47.11.125L.586.71l.479.477.122-.113L.706.592 1.188.11l-.13-.109-.47.472L.113 0z"></path>
  </symbol>
  <symbol xmlns="http://www.w3.org/2000/svg" viewBox="0 0 100 100" id="left_arrow">
    <path d="M69.373 92.663a4.48 4.48 0 01-6.339 0l-39.07-39.07a4.48 4.48 0 010-6.339l39.07-39.07a4.47 4.47 0 013.17-1.313 4.48 4.48 0 013.17 7.652l-35.9 35.9 35.899 35.901a4.48 4.48 0 010 6.339z"></path>
  </symbol>
  <symbol xmlns="http://www.w3.org/2000/svg" viewBox="0 0 52 52" id="abstand_siedlungen">
    <g transform="matrix(-1,0,0,1,73.924,-22.033898)">
      <path d="m 62,54.49 h -7.56 a 0.75,0.75 0 0 0 0,1.5 H 62 v 2.15 l 8,-2.9 -8,-2.9 z" />
      <path d="m 72.91,45.29 a 0.75,0.75 0 0 0 -0.75,0.75 v 18.39 a 0.75,0.75 0 0 0 1.5,0 V 46 a 0.76,0.76 0 0 0 -0.75,-0.71 z" />
      <path d="M 48.62,37.55 V 29.94 A 0.59,0.59 0 0 0 48.45,29.52 0.6,0.6 0 0 0 48.02,29.34 H 44 a 0.6,0.6 0 0 0 -0.6,0.6 v 3 l -5.06,-4.48 a 2.2,2.2 0 0 0 -2.74,0 C 30.76,32.82 23.39,39.39 23,39.68 c -0.67,0.5 -0.67,1.15 -0.67,2.9 v 23.1 c 0,1.12 0.55,2.34 1.75,2.34 H 34.46 V 56.54 c 0,-0.54 0.15,-0.82 0.25,-0.84 h 4.63 a 1.43,1.43 0 0 1 0.23,0.84 v 10.35 c 0,0.09 0,0.17 0,0.29 l -0.11,0.84 h 10.5 c 0.61,0 1.75,-0.49 1.75,-2.34 V 42.32 c 0,-1 0,-2 -0.63,-2.6 z m 1.44,3.28 z m 0.13,1.48 v 23.37 c 0,0.54 -0.15,0.82 -0.25,0.84 h -8.87 v -10 c 0,-1.12 -0.54,-2.34 -1.74,-2.34 h -4.62 c -0.61,0 -1.75,0.49 -1.75,2.34 v 10 h -8.89 a 1.45,1.45 0 0 1 -0.23,-0.84 v -23.1 a 8.87,8.87 0 0 1 0.07,-1.7 C 24.28,40.6 34.57,31.44 36.59,29.63 a 0.67,0.67 0 0 1 0.82,0 l 12.66,11.21 a 4.64,4.64 0 0 1 0.12,1.47 z" />
    </g>
  </symbol>
  <symbol xmlns="http://www.w3.org/2000/svg" viewBox="0 0 96 96" id="ffh">
    <path d="M95.262 57.552L63.026 7.334a1.452 1.452 0 00-1.147-.669 1.414 1.414 0 00-1.204.574l-17.408 22.93-14.293-12.038a1.529 1.529 0 00-1.185-.306 1.433 1.433 0 00-.993.688L1.228 62.71v.153a1.682 1.682 0 00-.095.287 1.166 1.166 0 000 .267 1.261 1.261 0 000 .268 1.108 1.108 0 00.095.267.611.611 0 000 .172l.191.21a.994.994 0 00.21.191h.096a1.586 1.586 0 00.516.134h.153a1.567 1.567 0 00.65-.172A77.868 77.868 0 0141.93 55.89a89.81 89.81 0 0125.854 4.472 56.944 56.944 0 00-15.287.917 50.256 50.256 0 00-23.275 11.56 59.332 59.332 0 00-25.548 1.013 1.452 1.452 0 00-.994 1.778 1.414 1.414 0 001.758.993 56.409 56.409 0 0124.842-.879c20.026 3.67 28.988 13.376 29.064 13.376a1.414 1.414 0 001.108.535 1.49 1.49 0 00.918-.325 1.433 1.433 0 00.19-2.025S52 77.75 32.797 73.488a47.122 47.122 0 0120.37-9.554c16.05-3.096 26.866 1.586 29.847 3.115a46.683 46.683 0 018.236 6 1.471 1.471 0 001.07.458 1.395 1.395 0 00.956-.363 1.452 1.452 0 00.114-2.025c-2.426-2.675-12.994-10.777-30.172-15.287V44.52l4.586 3.821a1.414 1.414 0 00.917.344 1.471 1.471 0 001.108-.535 1.433 1.433 0 00-.21-1.91l-6.459-5.542V37.2l4.587 3.822a1.376 1.376 0 00.917.325 1.452 1.452 0 001.108-.516 1.433 1.433 0 00-.21-1.911l-6.402-5.312v-2.886l4.587 3.822a1.49 1.49 0 00.917.325 1.433 1.433 0 00.898-2.542l-6.746-5.58a1.318 1.318 0 00-.898-.305h-.172a1.3 1.3 0 00-.936.306l-6.803 5.56a1.433 1.433 0 00.918 2.542 1.49 1.49 0 00.898-.325l4.414-3.65v2.752l-6.23 5.159a1.433 1.433 0 00.918 2.522 1.376 1.376 0 00.898-.324l4.414-3.631v3.497l-6.23 5.16a1.414 1.414 0 00-.19 1.91 1.433 1.433 0 001.108.535 1.395 1.395 0 00.898-.344l4.471-3.592v10.949a95.18 95.18 0 00-18.134-2.312 84.078 84.078 0 00-36.077 6.84L28.42 21.59l14.12 11.827a1.414 1.414 0 001.07.325 1.452 1.452 0 00.994-.554L61.65 10.602 92.835 59.1a1.44 1.44 0 002.427-1.548z" fill="#231f20"></path>
  </symbol>
  <symbol xmlns="http://www.w3.org/2000/svg" viewBox="0 0 45 45" id="flachen_im_detail">
    <path d="M44.613 21.944a2.48 2.48 0 00-1.24-1.91l-1.74-1.22 1.74-1.32a3.06 3.06 0 001.23-2.07 2.47 2.47 0 00-1.23-1.9l-14.5-10.6a5.06 5.06 0 00-5.81 0l-1.69 1.28a13 13 0 00-7.29-2.21 13.14 13.14 0 00-6.13 24.82l-7.52 13.92a.76.76 0 00.31 1 .73.73 0 00.35.09.75.75 0 00.66-.4l6.13-11.35 15.18 11.37a5.31 5.31 0 003 .94 4.73 4.73 0 002.82-.94l14.49-10.63a3 3 0 001.24-2 2.45 2.45 0 00-1.24-1.93l-2-1.44 2-1.44a3.05 3.05 0 001.24-2.06zm-20.66-17.8a3.49 3.49 0 014 0l14.54 10.59c.51.37.62.63.62.7a1.71 1.71 0 01-.62.85l-14.5 10.59a3.53 3.53 0 01-4 0l-1.9-1.36a13.12 13.12 0 00.48-20.36zm-21.58 10.99a11.65 11.65 0 1111.66 11.68 11.65 11.65 0 01-11.66-11.68zm40.11 13c.51.37.62.63.62.7a1.71 1.71 0 01-.62.85l-14.49 10.55a3.49 3.49 0 01-4 0l-15.39-11.48.77-1.35a13.09 13.09 0 004.7.88h.62l8.42 6.35a5.62 5.62 0 003 .94 4.66 4.66 0 002.8-.95l11.26-8.22zm0-5.3l-14.49 10.55a3.52 3.52 0 01-4 0l-7.17-5.4a13 13 0 004-1.58l2.3 1.67a5.49 5.49 0 003 .95 4.66 4.66 0 002.8-.95l11.45-8.38 2.13 1.55c.51.37.62.63.62.7a1.71 1.71 0 01-.63.87z"></path>
  </symbol>
  <symbol xmlns="http://www.w3.org/2000/svg" viewBox="0 0 41 41" id="karte_zeigen">
    <path d="M39.45 5.25l-12-4.64a1.7 1.7 0 00-1.31 0L13.84 5.4a.19.19 0 01-.18 0L2.37.63A1.71 1.71 0 00.76.79 1.69 1.69 0 000 2.21v31.37a1.71 1.71 0 001.05 1.58l12 5a1.74 1.74 0 001.32 0l12.27-5.13a.28.28 0 01.18 0l11.3 4.72a1.7 1.7 0 002.36-1.57V6.84a1.72 1.72 0 00-1.03-1.59zm-38 28.33V2.21a.27.27 0 01.25-.25.19.19 0 01.09 0l11.07 4.62v31.9L1.6 33.78a.25.25 0 01-.14-.2zm12.87 5.05V6.73h.06l11.65-4.5v31.51zm24.73-.42a.24.24 0 01-.11.2.22.22 0 01-.23 0L27.5 33.74V2.21l11.41 4.4a.25.25 0 01.15.23z"></path>
  </symbol>
  <symbol xmlns="http://www.w3.org/2000/svg" viewBox="0 0 58 58" id="mehr_ergebnisse">
    <path d="M20.02 23.76H7.97a1.93 1.93 0 00-1.93 1.92v9.21a.75.75 0 001.5 0v-9.21a.42.42 0 01.43-.43h12.05a.42.42 0 01.42.42v18.42a.42.42 0 01-.42.42h-2.87a.75.75 0 100 1.5h2.87a1.92 1.92 0 001.95-1.92V25.68a1.92 1.92 0 00-1.95-1.92zm17.95-8.61H25.58a1.75 1.75 0 00-1.75 1.75v27.35A1.75 1.75 0 0025.58 46h12.39a1.75 1.75 0 001.77-1.75V16.9a1.75 1.75 0 00-1.77-1.75zm.27 29.1a.25.25 0 01-.25.25H25.58a.25.25 0 01-.25-.25V16.9a.25.25 0 01.25-.25h12.39a.25.25 0 01.25.25zM55.97 6.42H43.55a1.75 1.75 0 00-1.75 1.75v36.08A1.75 1.75 0 0043.55 46h12.42a1.75 1.75 0 001.74-1.75V8.17a1.75 1.75 0 00-1.74-1.75zm.24 37.83a.25.25 0 01-.25.25H43.55a.25.25 0 01-.25-.25V8.17a.25.25 0 01.25-.25h12.42a.25.25 0 01.25.25zm-43.41.26H7.52v-5.26a.75.75 0 00-1.5 0v5.27H.75a.75.75 0 000 1.5h5.27v5.23a.75.75 0 001.5 0v-5.24h5.28a.75.75 0 000-1.5z"></path>
  </symbol>
  <symbol xmlns="http://www.w3.org/2000/svg" viewBox="0 0 48 48" id="mein_szenario">
    <g>
      <path d="M13.083 15.18h21.42a.75.75 0 000-1.5h-21.42a.75.75 0 000 1.5zm21.42 3.76h-21.42a.75.75 0 000 1.5h21.42a.75.75 0 000-1.5zm-2.52 4.95h-16.38a.75.75 0 000 1.5h16.38a.75.75 0 000-1.5z"></path>
      <path d="M46.153 4.08H1.433a.75.75 0 000 1.5h4v28.1a.75.75 0 00.75.74h16.86v8.22h-6.8a.75.75 0 000 1.5h15.1a.75.75 0 000-1.5h-6.8v-8.25h16.85a.75.75 0 00.75-.74V5.55h4a.75.75 0 000-1.5zm-5.51 28.82h-33.7V5.55h33.7z"></path>
    </g>
  </symbol>
  <symbol xmlns="http://www.w3.org/2000/svg" viewBox="0 0 40 40" id="suchen">
    <path d="M28.731 1.235a15.29 15.29 0 00-15.35 25.57L.851 38.475a.75.75 0 00.52 1.3.73.73 0 00.51-.21l12.64-11.77a15.29 15.29 0 1014.21-26.56zm8.31 18.85a13.81 13.81 0 11-8.78-17.42 13.76 13.76 0 018.78 17.42z"></path>
  </symbol>
  <symbol xmlns="http://www.w3.org/2000/svg" viewBox="0 0 43 43" id="waldflaechenschutz">
    <path d="M40.725 32.38l-6.65-10h3.08a.75.75 0 00.68-.42.78.78 0 00-.08-.79l-7.1-9.11h3.41a.75.75 0 00.68-.42.77.77 0 00-.09-.8L26.195.22a.78.78 0 00-1.18 0l-4.92 6.16-1.9-2.38a.78.78 0 00-1.18 0l-8.41 10.6a.74.74 0 00.59 1.21h3.41l-7.1 9.12a.75.75 0 00.6 1.21h3.08l-6.65 10a.76.76 0 00.63 1.17h13.69v4.85a.75.75 0 001.5 0v-4.83h6.51v2.07a.75.75 0 001.5 0v-2.03h5.75a.75.75 0 00.66-.4.74.74 0 000-.77l-1.79-2.66h9.11a.75.75 0 00.66-.39.76.76 0 00-.03-.77zm-36.21 3.45l6.64-10a.74.74 0 00-.62-1.16h-2.93l7.09-9.12a.73.73 0 00.08-.79.75.75 0 00-.67-.42h-3.4l6.9-8.67 6.9 8.64h-3.38a.77.77 0 00-.68.42.75.75 0 00.09.79l7.07 9.12h-3a.75.75 0 00-.66.39.74.74 0 000 .77l6.64 10zm25.47-3.79l-3.91-5.9h3.08a.77.77 0 00.68-.42.75.75 0 00-.09-.79l-7.09-9.12h3.41a.74.74 0 00.59-1.21l-5.6-7 4.55-5.71 6.9 8.64h-3.38a.75.75 0 00-.59 1.21l7.07 9.11h-3a.75.75 0 00-.62 1.17l6.64 10z"></path>
  </symbol>
  <symbol xmlns="http://www.w3.org/2000/svg" viewBox="0 0 40 40" id="info">
    <g>
      <path d="M17.48 10.43c0-1.77.61-2.41 2.52-2.41 1.91 0 2.51.64 2.51 2.41s-.59 2.41-2.51 2.41-2.52-.62-2.52-2.41zm.38 4.43h4.34v17.1h-4.34z"></path>
      <path d="M20 1.5A18.5 18.5 0 111.5 20 18.52 18.52 0 0120 1.5M20 0a20 20 0 1020 20A20 20 0 0020 0z"></path>
    </g>
  </symbol>
  <symbol xmlns="http://www.w3.org/2000/svg" viewBox="0 0 41 41" id="tick">
    <g>
      <path d="M20.5 2A18.5 18.5 0 112 20.5 18.52 18.52 0 0120.5 2m0-1.5a20 20 0 1020 20 20 20 0 00-20-20z"></path>
      <path d="M18.49 28.7a.72.72 0 01-.46-.16l-8.21-6.52a.754.754 0 01.94-1.18l7.66 6.1 11.74-12.45a.75.75 0 111.09 1l-12.21 13a.78.78 0 01-.55.21z"></path>
    </g>
  </symbol>
  <symbol xmlns="http://www.w3.org/2000/svg" viewBox="0 0 41 41" id="anteil-ausgew-flaechen">
    <g>
      <path d="M20.3 39.3c-1.3 0-2.5-.5-3.1-1l-16-11.9C.4 25.8 0 25.2 0 24.5c0-1.1 1.2-2.1 1.2-2.1L4.5 20l13.3 9.9c.1.1 2.4 1.7 4.7 0L35.9 20l3.3 2.5c.8.6 1.2 1.3 1.2 1.9 0 1.1-1.2 2.1-1.2 2.1l-16 11.8c-.9.8-2 1-2.9 1zM4.5 21.4l-2.6 2c-.3.2-.8.8-.8 1.2 0 .3.3.6.8 1l15.9 11.9c.1.1 2.4 1.7 4.7 0l15.9-11.9c.3-.2.8-.8.8-1.2 0-.3-.3-.6-.8-1l-2.6-2-12.6 9.4c-3 2.2-5.9.1-6.1 0z"></path>
      <path d="M4.2 21.1l-3-2.2C.4 18.3 0 17.6 0 17c0-1.1 1.2-2.1 1.2-2.1L17.2 3c2.4-1.8 5-.8 6.1 0l15.9 11.9c.8.6 1.2 1.3 1.2 1.9 0 1.1-1.2 2.1-1.2 2.1l-3 2.2-.7-.9 3-2.2c.3-.2.8-.8.8-1.2 0-.3-.3-.6-.8-1L22.6 3.9c-.1-.1-2.4-1.7-4.7 0l-16 11.9c-.3.2-.8.8-.8 1.2 0 .3.3.6.8 1l3 2.2z"></path>
    </g>
    <path d="M13.6 14.2c0-2.4.4-3.6 2.6-3.6s2.6 1.2 2.6 3.6c0 2.4-.4 3.6-2.6 3.6s-2.6-1.1-2.6-3.6zm4.1 0c0-1.6-.1-2.7-1.4-2.7-1.3 0-1.4 1.1-1.4 2.7s0 2.7 1.4 2.7 1.4-1.1 1.4-2.7zm5.4-3.8h1.2l-7.2 12.8h-1.2zm-1.7 9c0-2.4.4-3.6 2.6-3.6s2.6 1.2 2.6 3.6c0 2.4-.4 3.6-2.6 3.6s-2.6-1.2-2.6-3.6zm4.1 0c0-1.6-.1-2.7-1.4-2.7-1.4 0-1.4 1.1-1.4 2.7s.1 2.7 1.4 2.7c1.3 0 1.4-1.1 1.4-2.7z"></path>
  </symbol>
  <symbol xmlns="http://www.w3.org/2000/svg" viewBox="0 0 42 42" id="szenario_teilen">
    <path d="M31.529 27.324a7.15 7.15 0 00-5.67 2.81l-8.82-5.46a7.11 7.11 0 000-6.89l8.84-5.43a7.16 7.16 0 10-1.5-4.36 7.07 7.07 0 00.71 3.08l-8.95 5.48a7.17 7.17 0 100 9.36l8.89 5.49a7.16 7.16 0 106.46-4.08zm0-25a5.68 5.68 0 11-5.67 5.68 5.68 5.68 0 015.67-5.69zm-20.78 24.59a5.67 5.67 0 115.67-5.66 5.67 5.67 0 01-5.67 5.66zm20.78 13.26a5.68 5.68 0 115.67-5.68 5.68 5.68 0 01-5.67 5.68z"></path>
  </symbol>
  <symbol xmlns="http://www.w3.org/2000/svg" viewBox="0 0 100 100" id="hamburger">
    <path d="M10.6 33.12h78.8a5.63 5.63 0 000-11.26H10.6a5.63 5.63 0 000 11.26zm78.8 11.25H10.6a5.63 5.63 0 100 11.26h78.8a5.63 5.63 0 000-11.26zm0 22.51H10.6a5.63 5.63 0 000 11.26h78.8a5.63 5.63 0 000-11.26z" fill-rule="evenodd"></path>
  </symbol>
  <symbol xmlns="http://www.w3.org/2000/svg" viewBox="0 0 100 100" id="right_arrow">
    <path d="M29.966 92.663a4.48 4.48 0 006.338 0l39.07-39.07a4.48 4.48 0 000-6.339l-39.07-39.07a4.47 4.47 0 00-3.17-1.313 4.464 4.464 0 00-3.17 1.313 4.48 4.48 0 000 6.34l35.9 35.9-35.898 35.9a4.48 4.48 0 000 6.339z"></path>
  </symbol>
  <symbol xmlns="http://www.w3.org/2000/svg" viewBox="0 0 100 100" id="link">
    <g>
      <path d="M60.454 65.926A19.878 19.878 0 0146.407 60.1a4.011 4.011 0 010-5.771c1.579-1.579 4.138-1.579 5.771 0a11.575 11.575 0 008.276 3.43c2.995 0 5.935-1.143 8.276-3.43l14.592-14.592c2.287-2.341 3.43-5.281 3.43-8.276 0-3.049-1.143-5.989-3.43-8.276s-5.281-3.43-8.276-3.43-5.989 1.143-8.276 3.43l-7.296 7.296c-1.633 1.579-4.192 1.579-5.771 0-1.633-1.633-1.633-4.192 0-5.771l7.296-7.296c3.866-3.92 8.984-5.826 14.047-5.826s10.181 1.906 14.047 5.826a19.786 19.786 0 015.826 14.047c0 5.064-1.96 10.181-5.826 14.047L74.501 60.1a19.88 19.88 0 01-14.047 5.826z"></path>
      <path d="M53.593 39.9c1.579 1.579 1.579 4.192 0 5.771a4.011 4.011 0 01-5.771 0c-2.287-2.287-5.281-3.43-8.276-3.43s-5.989 1.143-8.276 3.43L16.679 60.263c-2.287 2.341-3.43 5.281-3.43 8.276 0 3.049 1.143 5.989 3.43 8.276s5.227 3.43 8.276 3.43c2.995 0 5.935-1.143 8.276-3.43l7.296-7.296c1.579-1.579 4.138-1.579 5.771 0 1.579 1.633 1.579 4.192 0 5.771l-7.296 7.296c-3.866 3.92-8.984 5.826-14.047 5.826-5.118 0-10.181-1.906-14.047-5.826a19.786 19.786 0 01-5.826-14.047c0-5.064 1.906-10.181 5.826-14.047L25.499 39.9c3.866-3.866 8.984-5.826 14.047-5.826s10.182 1.96 14.047 5.826z"></path>
    </g>
  </symbol>
</svg>