<svg height="22mm" viewBox="0 0 84 22" width="84mm" xmlns="http://www.w3.org/2000/svg"><g fill-rule="evenodd" transform="translate(88.355452 37.118393)"><path d="m-75.252087-20.250224-2.624345-1.739053 2.624345-1.739035 2.624364 1.739035z" fill="#002c50"/><g fill="#2348c3"><path d="m-75.252087-32.075756 2.624383 1.739053-2.624364 1.739054-2.624364-1.739054z"/><path d="m-72.102842-29.9889 2.624363 1.739054-2.624363 1.739016-2.624345-1.739016z"/><path d="m-78.401311-29.9889 2.624363 1.739054-2.624363 1.739016-2.624346-1.739016z"/><path d="m-75.252087-27.902025 2.624383 1.739016-2.624383 1.739073-2.624345-1.739073z"/><path d="m-68.953599-32.075756 2.624364 1.739053-2.624364 1.739054-2.624364-1.739054z"/></g><g fill="#002c50"><path d="m-68.953617-20.250224-2.624383-1.739053 2.624364-1.739053 2.624364 1.739053z"/><path d="m-72.102842-22.337099-2.624345-1.739053 2.624345-1.738998 2.624363 1.738998z"/><path d="m-65.804392-22.337099-2.624364-1.739053 2.624364-1.738998 2.624364 1.738998z"/><path d="m-68.953599-24.423936-2.624364-1.739035 2.624364-1.739054 2.624346 1.739016z"/><path d="m-82.056309-28.245395-1.312191-.869555-4.457785 2.956412 4.448864 2.955554 1.303252-.870356-3.140175-2.08086z"/><path d="m-62.129057-28.255769 1.312191-.869517 4.457785 2.956392-4.448864 2.955555-1.303251-.870356 3.140173-2.080859z"/><path d="m-75.249591-32.783208-1.313439-.863613 4.460169-2.942405 4.461416 2.948346-1.312172.869518-3.155818-2.092668z"/><path d="m-75.241768-19.548695-1.313421.863614 4.460169 2.942405 4.461416-2.948365-1.312191-.869499-3.155819 2.092667z"/><g stroke-dashoffset="5.28988" stroke-opacity=".635496" stroke-width="2.22398"><path d="m-50.854531-33.037368h4.327696q1.735472 0 1.735472 1.735472v10.193152q0 1.735472-1.735472 1.735472h-4.327696zm4.547376 11.686976v-9.709856q0-.43936-.131808-.5492-.131808-.131808-.5492-.131808h-2.350576v11.071872h2.350576q.417392 0 .5492-.10984.131808-.131808.131808-.571168z"/><path d="m-42.748369-32.312424v-1.779408h1.603664v1.779408zm1.559728 12.939152h-1.515792v-10.65448h1.515792z"/><path d="m-35.498962-30.027752h1.515792v12.016496q0 1.735472-1.735472 1.735472h-3.273232v-1.296112h2.811904q.417392 0 .5492-.131808.131808-.131808.131808-.5492v-1.845312q-.241648.724944-1.20824.724944h-.87872q-1.735472 0-1.735472-1.735472v-7.183536q0-1.735472 1.735472-1.735472h.87872q.966592 0 1.20824.724944zm-1.625632 9.358368h.87872q.395424 0 .571168-.175744.175744-.175744.175744-.615104v-6.48056q0-.43936-.175744-.615104-.175744-.175744-.571168-.175744h-.87872q-.43936 0-.571168.131808-.10984.131808-.10984.5492v6.70024q0 .43936.10984.571168.131808.10984.571168.10984z"/><path d="m-32.050005-32.312424v-1.779408h1.603664v1.779408zm1.559728 12.939152h-1.515792v-10.65448h1.515792z"/><path d="m-28.293511-33.037368h3.976208q1.735472 0 1.735472 1.735472v4.701152q0 1.735472-1.735472 1.735472h-2.482384v5.492h-1.493824zm4.217856 6.194976v-4.217856q0-.43936-.131808-.5492-.10984-.131808-.5492-.131808h-2.043024v5.579872h2.043024q.43936 0 .5492-.10984.131808-.131808.131808-.571168z"/><path d="m-19.418454-19.373272h-1.515792v-14.696592h1.515792z"/><path d="m-13.728776-30.027752h1.515792v10.65448h-1.515792v-.724944q-.241648.724944-1.20824.724944h-.87872q-1.735472 0-1.735472-1.735472v-7.183536q0-1.735472 1.735472-1.735472h.87872q.966592 0 1.20824.724944zm-1.625632 9.358368h.87872q.395424 0 .571168-.175744.175744-.175744.175744-.615104v-6.48056q0-.43936-.175744-.615104-.175744-.175744-.571168-.175744h-.87872q-.43936 0-.571168.131808-.10984.131808-.10984.5492v6.70024q0 .43936.10984.571168.131808.10984.571168.10984z"/><path d="m-7.5118495-30.027752h.8787201q1.735472 0 1.735472 1.735472v8.919008h-1.515792v-8.67736q0-.417392-.131808-.5492-.10984-.131808-.5492001-.131808h-.87872q-.395424 0-.571168.175744-.175744.175744-.175744.615104v8.56752h-1.5157925v-10.65448h1.5157925v.724944q.241648-.724944 1.20824-.724944z"/></g></g></g></svg>