<?xml version="1.0" encoding="UTF-8" standalone="no"?>
<!-- Created with Inkscape (http://www.inkscape.org/) -->

<svg
   width="134.79884mm"
   height="22.560089mm"
   viewBox="0 0 134.79884 22.560089"
   version="1.1"
   id="svg8429"
   xmlns="http://www.w3.org/2000/svg"
   xmlns:svg="http://www.w3.org/2000/svg">
  <defs
     id="defs8426" />
  <g
     id="layer1"
     transform="translate(19.485395,-65.08423)">
    <path
       id="path6797"
       style="fill:#002c50;fill-opacity:1;fill-rule:evenodd;stroke:#eb5e28;stroke-width:0;stroke-linejoin:round;stroke-dashoffset:5.28988"
       d="m -5.877686,82.76623 -2.840032,-1.88197 2.840032,-1.88197 2.84011,1.88197 z" />
    <path
       id="path6799"
       style="fill:#2348c3;fill-opacity:1;fill-rule:evenodd;stroke:#eb5e28;stroke-width:0;stroke-linejoin:round;stroke-dashoffset:5.28988"
       d="m -5.877686,69.9687 2.840125,1.88201 -2.840094,1.88199 -2.840063,-1.88199 z" />
    <path
       id="path6801"
       style="fill:#2348c3;fill-opacity:1;fill-rule:evenodd;stroke:#eb5e28;stroke-width:0;stroke-linejoin:round;stroke-dashoffset:5.28988"
       d="m -2.469555,72.22709 2.840094,1.88202 -2.840094,1.88197 -2.840047,-1.88197 z" />
    <path
       id="path6803"
       style="fill:#2348c3;fill-opacity:1;fill-rule:evenodd;stroke:#eb5e28;stroke-width:0;stroke-linejoin:round;stroke-dashoffset:5.28988"
       d="m -9.285771,72.22709 2.84011,1.88202 -2.84011,1.88197 -2.840031,-1.88197 z" />
    <path
       id="path6805"
       style="fill:#2348c3;fill-opacity:1;fill-rule:evenodd;stroke:#eb5e28;stroke-width:0;stroke-linejoin:round;stroke-dashoffset:5.28988"
       d="m -5.877686,74.48551 2.840125,1.88198 -2.840125,1.88197 -2.840032,-1.88197 z" />
    <path
       id="path6807"
       style="fill:#2348c3;fill-opacity:1;fill-rule:evenodd;stroke:#eb5e28;stroke-width:0;stroke-linejoin:round;stroke-dashoffset:5.28988"
       d="M 0.938546,69.9687 3.77864,71.85071 0.938546,73.7327 -1.901533,71.85071 Z" />
    <path
       id="path6809"
       style="fill:#002c50;fill-opacity:1;fill-rule:evenodd;stroke:#eb5e28;stroke-width:0;stroke-linejoin:round;stroke-dashoffset:5.28988"
       d="m 0.938515,82.76623 -2.840079,-1.88197 2.840063,-1.882 2.840094,1.882 z" />
    <path
       id="path6811"
       style="fill:#002c50;fill-opacity:1;fill-rule:evenodd;stroke:#eb5e28;stroke-width:0;stroke-linejoin:round;stroke-dashoffset:5.28988"
       d="m -2.469555,80.50787 -2.840047,-1.88203 2.840047,-1.88193 2.840094,1.88193 z" />
    <path
       id="path6813"
       style="fill:#002c50;fill-opacity:1;fill-rule:evenodd;stroke:#eb5e28;stroke-width:0;stroke-linejoin:round;stroke-dashoffset:5.28988"
       d="M 4.346599,80.50787 1.506505,78.62584 4.346599,76.74391 7.186693,78.62584 Z" />
    <path
       id="path6815"
       style="fill:#002c50;fill-opacity:1;fill-rule:evenodd;stroke:#eb5e28;stroke-width:0;stroke-linejoin:round;stroke-dashoffset:5.28988"
       d="m 0.938546,78.24946 -2.840079,-1.88194 2.840079,-1.88201 2.840078,1.88198 z" />
    <path
       style="fill:#002c50;fill-opacity:1;fill-rule:evenodd;stroke:none;stroke-width:1.55512;stroke-linejoin:miter;stroke-dasharray:none;stroke-dashoffset:5.28988;stroke-opacity:0.635496"
       d="m -13.241197,74.11392 -1.420031,-0.94106 -4.824167,3.19945 4.814511,3.19848 1.410391,-0.94191 -3.398289,-2.25186 z"
       id="path6817" />
    <path
       style="fill:#002c50;fill-opacity:1;fill-rule:evenodd;stroke:none;stroke-width:1.55512;stroke-linejoin:miter;stroke-dasharray:none;stroke-dashoffset:5.28988;stroke-opacity:0.635496"
       d="m 8.324043,74.10268 1.420047,-0.94097 4.824229,3.1994 -4.814558,3.19847 -1.410406,-0.94188 3.39832,-2.25189 z"
       id="path6819" />
    <path
       style="fill:#002c50;fill-opacity:1;fill-rule:evenodd;stroke:none;stroke-width:1.55512;stroke-linejoin:miter;stroke-dasharray:none;stroke-dashoffset:5.28988;stroke-opacity:0.635496"
       d="m -5.874965,69.20311 -1.421399,-0.93464 4.826794,-3.18424 4.828132,3.19071 -1.420047,0.94097 -3.415207,-2.26467 z"
       id="path6821" />
    <path
       style="fill:#002c50;fill-opacity:1;fill-rule:evenodd;stroke:none;stroke-width:1.55512;stroke-linejoin:miter;stroke-dasharray:none;stroke-dashoffset:5.28988;stroke-opacity:0.635496"
       d="m -5.866491,83.52547 -1.421384,0.93456 4.826764,3.18429 4.828116,-3.19071 -1.420016,-0.94097 -3.415222,2.26466 z"
       id="path6823" />
    <g
       aria-label="DigiPlan Anhalt"
       id="text6827"
       style="font-size:22.6063px;font-family:Teko;-inkscape-font-specification:Teko;letter-spacing:0.304245px;fill:#002c50;fill-rule:evenodd;stroke-width:2.28862;stroke-dashoffset:5.28988;stroke-opacity:0.635496"
       transform="translate(10.313374,-82.888616)">
      <path
         d="m 11.446181,152.22584 h 4.453441 q 1.785898,0 1.785898,1.7859 v 10.48932 q 0,1.7859 -1.785898,1.7859 h -4.453441 z m 4.679504,12.02655 v -9.99199 q 0,-0.45212 -0.135638,-0.56515 -0.135638,-0.13564 -0.565157,-0.13564 h -2.418875 v 11.39358 h 2.418875 q 0.429519,0 0.565157,-0.11304 0.135638,-0.13563 0.135638,-0.58776 z"
         style="font-weight:300;-inkscape-font-specification:'Teko Light'"
         id="path8720" />
      <path
         d="m 20.092119,152.97185 v -1.83111 h 1.65026 v 1.83111 z m 1.605048,13.31511 H 20.137332 V 155.3229 h 1.559835 z"
         style="font-weight:300;-inkscape-font-specification:'Teko Light'"
         id="path8717" />
      <path
         d="m 27.856409,155.3229 h 1.559835 v 12.36565 q 0,1.7859 -1.785898,1.7859 h -3.368339 v -1.33378 h 2.893607 q 0.429519,0 0.565157,-0.13563 0.135638,-0.13564 0.135638,-0.56516 v -1.89893 q -0.248669,0.74601 -1.243347,0.74601 H 25.70881 q -1.785897,0 -1.785897,-1.7859 v -7.39226 q 0,-1.7859 1.785897,-1.7859 h 0.904252 q 0.994678,0 1.243347,0.74601 z m -1.672866,9.63029 h 0.904252 q 0.406913,0 0.587763,-0.18086 0.180851,-0.18085 0.180851,-0.63297 v -6.66886 q 0,-0.45213 -0.180851,-0.63298 -0.18085,-0.18085 -0.587763,-0.18085 h -0.904252 q -0.452126,0 -0.587764,0.13564 -0.113032,0.13564 -0.113032,0.56516 v 6.89492 q 0,0.45213 0.113032,0.58776 0.135638,0.11304 0.587764,0.11304 z"
         style="font-weight:300;-inkscape-font-specification:'Teko Light'"
         id="path8714" />
      <path
         d="m 31.709823,152.97185 v -1.83111 h 1.65026 v 1.83111 z m 1.605047,13.31511 H 31.755035 V 155.3229 h 1.559835 z"
         style="font-weight:300;-inkscape-font-specification:'Teko Light'"
         id="path8711" />
      <path
         d="m 35.879711,152.22584 h 4.091741 q 1.785898,0 1.785898,1.7859 v 4.83774 q 0,1.7859 -1.785898,1.7859 H 37.41694 v 5.65158 h -1.537229 z m 4.34041,6.37497 v -4.34041 q 0,-0.45212 -0.135638,-0.56515 -0.113031,-0.13564 -0.565157,-0.13564 H 37.41694 v 5.742 h 2.102386 q 0.452126,0 0.565157,-0.11303 0.135638,-0.13564 0.135638,-0.58777 z"
         style="font-weight:300;-inkscape-font-specification:'Teko Light'"
         id="path8708" />
      <path
         d="m 45.316886,166.28696 h -1.559834 v -15.12362 h 1.559834 z"
         style="font-weight:300;-inkscape-font-specification:'Teko Light'"
         id="path8705" />
      <path
         d="m 51.476129,155.3229 h 1.559835 v 10.96406 h -1.559835 v -0.74601 q -0.248669,0.74601 -1.243346,0.74601 h -0.904252 q -1.785898,0 -1.785898,-1.7859 v -7.39226 q 0,-1.7859 1.785898,-1.7859 h 0.904252 q 0.994677,0 1.243346,0.74601 z m -1.672866,9.63029 h 0.904252 q 0.406913,0 0.587764,-0.18086 0.18085,-0.18085 0.18085,-0.63297 v -6.66886 q 0,-0.45213 -0.18085,-0.63298 -0.180851,-0.18085 -0.587764,-0.18085 h -0.904252 q -0.452126,0 -0.587764,0.13564 -0.113031,0.13564 -0.113031,0.56516 v 6.89492 q 0,0.45213 0.113031,0.58776 0.135638,0.11304 0.587764,0.11304 z"
         style="font-weight:300;-inkscape-font-specification:'Teko Light'"
         id="path8702" />
      <path
         d="m 58.177935,155.3229 h 0.904252 q 1.785898,0 1.785898,1.7859 v 9.17816 H 59.30825 v -8.92949 q 0,-0.42952 -0.135638,-0.56516 -0.113031,-0.13564 -0.565157,-0.13564 h -0.904252 q -0.406913,0 -0.587764,0.18085 -0.18085,0.18085 -0.18085,0.63298 v 8.81646 H 55.374754 V 155.3229 h 1.559835 v 0.74601 q 0.248669,-0.74601 1.243346,-0.74601 z"
         style="font-weight:300;-inkscape-font-specification:'Teko Light'"
         id="path8699" />
      <path
         d="m 71.287652,166.28696 -0.587764,-3.5718 h -2.848394 l -0.519945,3.5718 h -1.559834 l 2.192811,-14.06112 h 2.464086 l 2.418875,14.06112 z m -3.255307,-4.90557 h 2.464086 l -1.311165,-8.07045 z"
         style="font-weight:300;-inkscape-font-specification:'Teko Light'"
         id="path8696" />
      <path
         d="m 77.311259,155.3229 h 0.904252 q 1.785898,0 1.785898,1.7859 v 9.17816 h -1.559835 v -8.92949 q 0,-0.42952 -0.135638,-0.56516 -0.113031,-0.13564 -0.565157,-0.13564 h -0.904252 q -0.406914,0 -0.587764,0.18085 -0.180851,0.18085 -0.180851,0.63298 v 8.81646 H 74.508078 V 155.3229 h 1.559834 v 0.74601 q 0.24867,-0.74601 1.243347,-0.74601 z"
         style="font-weight:300;-inkscape-font-specification:'Teko Light'"
         id="path8693" />
      <path
         d="m 85.143363,155.3229 h 0.904252 q 1.785897,0 1.785897,1.7859 v 9.17816 h -1.559834 v -8.92949 q 0,-0.42952 -0.135638,-0.56516 -0.113032,-0.13564 -0.565158,-0.13564 H 84.66863 q -0.406913,0 -0.587763,0.18085 -0.180851,0.18085 -0.180851,0.63298 v 8.81646 h -1.559835 v -15.12362 h 1.559835 v 4.90557 q 0.248669,-0.74601 1.243347,-0.74601 z"
         style="font-weight:300;-inkscape-font-specification:'Teko Light'"
         id="path8690" />
      <path
         d="m 93.992754,155.3229 h 1.559834 v 10.96406 h -1.559834 v -0.74601 q -0.24867,0.74601 -1.243347,0.74601 h -0.904252 q -1.785898,0 -1.785898,-1.7859 v -7.39226 q 0,-1.7859 1.785898,-1.7859 h 0.904252 q 0.994677,0 1.243347,0.74601 z m -1.672866,9.63029 h 0.904252 q 0.406913,0 0.587763,-0.18086 0.180851,-0.18085 0.180851,-0.63297 v -6.66886 q 0,-0.45213 -0.180851,-0.63298 -0.18085,-0.18085 -0.587763,-0.18085 h -0.904252 q -0.452127,0 -0.587764,0.13564 -0.113032,0.13564 -0.113032,0.56516 v 6.89492 q 0,0.45213 0.113032,0.58776 0.135637,0.11304 0.587764,0.11304 z"
         style="font-weight:300;-inkscape-font-specification:'Teko Light'"
         id="path8687" />
      <path
         d="m 99.451209,166.28696 h -1.559834 v -15.12362 h 1.559834 z"
         style="font-weight:300;-inkscape-font-specification:'Teko Light'"
         id="path8684" />
      <path
         d="m 105.00008,156.65667 h -1.55983 v 7.48269 q 0,0.42952 0.13564,0.56516 0.13563,0.13563 0.56515,0.13563 h 0.85904 v 1.44681 h -1.33377 q -1.7859,0 -1.7859,-1.7859 v -7.84439 h -0.99467 v -1.33377 h 0.99467 v -1.7859 h 1.55984 v 1.7859 h 1.55983 z"
         style="font-weight:300;-inkscape-font-specification:'Teko Light'"
         id="path8681" />
    </g>
  </g>
</svg>
